<svg width="196" height="80" viewBox="0 0 196 80" fill="none" xmlns="http://www.w3.org/2000/svg">
<path d="M97.693 47.3741H92.573V33.6861H97.693V47.3741ZM93.073 46.8741H97.193V34.1861H93.073V46.8741ZM104.817 47.3741H99.8V33.6861H110.282C111.784 33.5645 113.279 33.9861 114.496 34.8741C115.02 35.3534 115.426 35.9473 115.683 36.6094C115.939 37.2715 116.039 37.9839 115.975 38.6911C116.05 39.9131 115.661 41.1183 114.886 42.0661C113.969 43.1181 112.443 43.6601 110.351 43.6791C109.824 43.6931 105.875 43.6791 104.82 43.6791L104.817 47.3741ZM100.297 46.8741H104.317V43.1741H104.568C104.619 43.1741 109.746 43.1901 110.339 43.1741C112.288 43.1571 113.689 42.6741 114.508 41.7311C115.198 40.8736 115.54 39.7883 115.468 38.6901C115.53 38.0565 115.444 37.4172 115.219 36.8218C114.993 36.2265 114.634 35.6911 114.168 35.2571C113.04 34.4472 111.659 34.067 110.275 34.1851H100.3L100.297 46.8741ZM109.22 40.6041H104.283V36.8781H109.253C109.605 36.8294 109.964 36.8705 110.296 36.9976C110.629 37.1247 110.923 37.3337 111.153 37.6051C111.362 37.952 111.46 38.3541 111.435 38.7581C111.454 39.1332 111.373 39.5066 111.2 39.8401C110.963 40.126 110.656 40.3461 110.309 40.4792C109.963 40.6123 109.588 40.6539 109.22 40.6001V40.6041ZM104.783 40.1041H109.22C110.04 40.1041 110.548 39.9331 110.773 39.5811C110.897 39.3253 110.953 39.0419 110.936 38.7581C110.958 38.4602 110.893 38.1622 110.75 37.9001L110.744 37.8911C110.506 37.5411 110.033 37.3781 109.253 37.3781H104.783V40.1041ZM125.1 47.5761C120.61 47.5761 117.93 46.4611 116.909 44.1681C116.742 43.7252 116.629 43.2639 116.571 42.7941L116.527 42.5061H121.869L121.904 42.7161C121.945 42.9293 122.036 43.13 122.168 43.3021C122.379 43.5571 123.083 43.9851 125.419 43.9851C128.227 43.9851 128.227 43.4921 128.227 43.2271C128.227 42.7801 127.902 42.6271 125.612 42.3831L125.177 42.3421C124.315 42.2611 123.225 42.1581 122.727 42.1151C118.527 41.7351 116.652 40.4301 116.652 37.8851C116.652 35.2121 119.843 33.4851 124.782 33.4851C128.811 33.4851 131.407 34.5471 132.496 36.6441C132.754 37.1319 132.928 37.6601 133.009 38.2061L133.044 38.4871H127.696L127.674 38.2611C127.653 38.0845 127.578 37.9188 127.458 37.7871C127.258 37.5191 126.626 37.0761 124.664 37.0761C122.255 37.0761 121.923 37.3841 121.923 37.7161C121.923 38.1591 122.684 38.3161 125.123 38.5771C126.14 38.6601 127.775 38.8281 128.335 38.8961C131.856 39.2781 133.427 40.5511 133.427 43.0251C133.428 45.1001 131.983 47.5761 125.1 47.5761ZM117.111 43.0061C117.161 43.3359 117.247 43.6591 117.368 43.9701C118.298 46.0591 120.828 47.0761 125.1 47.0761C128.672 47.0761 132.931 46.3761 132.931 43.0251C132.931 40.8321 131.541 39.7461 128.282 39.3931C127.722 39.3251 126.097 39.1581 125.082 39.0741C122.482 38.7921 121.425 38.6421 121.425 37.7161C121.425 36.7581 122.564 36.5761 124.666 36.5761C126.327 36.5761 127.4 36.8761 127.855 37.4811C127.979 37.6302 128.073 37.8021 128.131 37.9871H132.465C132.378 37.6004 132.24 37.2268 132.055 36.8761C131.055 34.9571 128.612 33.9851 124.784 33.9851C120.149 33.9851 117.154 35.5161 117.154 37.8851C117.154 40.1451 118.835 41.2611 122.773 41.6171C123.273 41.6601 124.362 41.7631 125.226 41.8451L125.664 41.8861C127.791 42.1101 128.729 42.2501 128.729 43.2271C128.729 44.2791 127.516 44.4851 125.421 44.4851C123.483 44.4851 122.259 44.1941 121.786 43.6211C121.64 43.4384 121.53 43.2297 121.462 43.0061H117.111ZM142.927 47.5591C137.707 47.5591 134.827 45.4481 134.827 41.6141V33.6861H139.879V41.6141C139.879 42.9291 141.056 43.6831 143.107 43.6831C145.067 43.6831 146.284 42.8961 146.284 41.6311V33.6861H151.284V42.0341C151.289 45.5451 148.24 47.5591 142.924 47.5591H142.927ZM135.327 34.1861V41.6141C135.327 46.3521 140.085 47.0591 142.927 47.0591C145.865 47.0591 150.792 46.4061 150.792 42.0341V34.1861H146.792V41.6311C146.792 43.1811 145.348 44.1831 143.115 44.1831C140.781 44.1831 139.387 43.2231 139.387 41.6141V34.1861H135.327ZM172.472 47.3741H167.704V41.1941L165 47.3741H160.841L158.165 41.2061V47.3741H153.38V33.6861H159.674L162.944 41.2331L166.372 33.6861H172.478L172.472 47.3741ZM168.204 46.8741H171.972V34.1861H166.69L162.928 42.4651L159.342 34.1861H153.876V46.8741H157.661V38.8001L161.161 46.8771H164.661L168.198 38.8121L168.204 46.8741ZM28.054 33.9361H23.5V47.1241H36.084V43.6131H28.054V33.9361ZM45.276 33.6361C39.463 33.6361 36.406 36.3911 36.406 40.4361C36.406 45.0061 39.615 47.3241 45.276 47.3241C51.508 47.3241 54.129 44.6361 54.129 40.4361C54.129 36.1711 51.172 33.6341 45.276 33.6341V33.6361ZM45.259 37.0631C45.6547 37.0612 46.0502 37.0843 46.443 37.1321L41.352 42.2231C41.1111 41.6782 40.9936 41.0867 41.008 40.4911C41.008 38.4221 42.05 37.0611 45.259 37.0611V37.0631ZM45.276 43.9511C44.8947 43.9528 44.5137 43.9314 44.135 43.8871L49.235 38.7871C49.4669 39.323 49.5779 39.9034 49.56 40.4871C49.56 42.5001 48.6 43.9491 45.276 43.9491V43.9511ZM63.152 42.1511H67.839C67.77 42.4764 67.6262 42.7811 67.419 43.0411C66.4473 43.8327 65.2072 44.2179 63.958 44.1161C63.3292 44.1834 62.6934 44.1147 62.0935 43.9147C61.4936 43.7148 60.9436 43.3882 60.481 42.9571C60.0071 42.262 59.782 41.4272 59.842 40.5881C59.7653 39.7088 60.0101 38.8316 60.531 38.1191C61.186 37.3791 62.295 37.0601 63.925 37.0601C64.9621 36.9742 65.9979 37.2406 66.865 37.8161C67.1383 38.0332 67.3426 38.325 67.453 38.6561H71.8C71.7684 38.1106 71.6372 37.5754 71.413 37.0771C70.372 34.9601 67.952 33.7001 63.837 33.7001C60.258 33.7001 57.856 34.7921 56.529 36.4391C55.6526 37.6285 55.2027 39.0785 55.252 40.5551C55.1953 42.0651 55.6336 43.5522 56.5 44.7901C57.811 46.4901 60.146 47.3261 62.952 47.3261C64.8175 47.4562 66.6703 46.9337 68.193 45.8481L68.311 47.1241H71.922V39.3121H63.152V42.1511ZM82.171 33.6331C76.359 33.6331 73.301 36.3881 73.301 40.4331C73.301 45.0031 76.509 47.3211 82.171 47.3211C88.404 47.3211 91.025 44.6331 91.025 40.4331C91.025 36.1711 88.068 33.6341 82.171 33.6341V33.6331ZM82.155 37.0601C82.5403 37.059 82.9253 37.081 83.308 37.1261L78.237 42.2001C78.0036 41.6612 77.89 41.0782 77.904 40.4911C77.9 38.4221 78.946 37.0611 82.155 37.0611V37.0601ZM82.171 43.9481C81.7796 43.9498 81.3885 43.927 81 43.8801L86.117 38.7621C86.3577 39.3051 86.4729 39.8954 86.454 40.4891C86.456 42.5001 85.5 43.9491 82.171 43.9491V43.9481Z" fill="#9397AD"/>
</svg>
