<svg xmlns="http://www.w3.org/2000/svg" viewBox="0 0 68.84 33.53"><defs><style>.cls-1{fill:#b6b8ba;}.cls-2,.cls-5{fill:none;stroke-width:1.56px;}.cls-2{stroke:#b6b8ba;}.cls-3{fill:#4e84c4;}.cls-4{fill:#404040;}.cls-5{stroke:#4e84c4;}</style></defs><g id="Capa_2" data-name="Capa 2"><g id="Your_Design" data-name="Your Design"><path class="cls-1" d="M45.59,20.74a11.74,11.74,0,0,1-8.33,3.43c-7.71,0-11.72-5.39-11.76-11.56S29.42.78,37.26.78a11.74,11.74,0,0,1,8.33,3.43l-1.14,1a.1.1,0,0,1-.13,0S41,2.35,37.26,2.35c-6.66,0-10.09,4.7-10.06,10.19s3.46,10,10.06,10c3.47,0,7.09-2.86,7.09-2.86a.1.1,0,0,1,.13,0Z" transform="translate(0)"/><path class="cls-2" d="M45.59,20.74a11.74,11.74,0,0,1-8.33,3.43c-7.71,0-11.72-5.39-11.76-11.56S29.42.78,37.26.78a11.74,11.74,0,0,1,8.33,3.43l-1.14,1a.1.1,0,0,1-.13,0S41,2.35,37.26,2.35c-6.66,0-10.09,4.7-10.06,10.19s3.46,10,10.06,10c3.47,0,7.09-2.86,7.09-2.86a.1.1,0,0,1,.13,0Z" transform="translate(0)"/><path class="cls-1" d="M17.84,23.91a.09.09,0,0,1-.09-.08V13.61a.09.09,0,0,0-.09-.08H3.27a.09.09,0,0,0-.09.08V23.83a.09.09,0,0,1-.08.08H1.51a.09.09,0,0,1-.09-.08V1.14a.09.09,0,0,1,.09-.09H3.1a.09.09,0,0,1,.08.09v10.7a.09.09,0,0,0,.09.09H17.66a.09.09,0,0,0,.09-.09V1.14a.09.09,0,0,1,.09-.09h1.59a.09.09,0,0,1,.09.09V23.83a.09.09,0,0,1-.09.08Z" transform="translate(0)"/><path class="cls-2" d="M17.84,23.91a.09.09,0,0,1-.09-.08V13.61a.09.09,0,0,0-.09-.08H3.27a.09.09,0,0,0-.09.08V23.83a.09.09,0,0,1-.08.08H1.51a.09.09,0,0,1-.09-.08V1.14a.09.09,0,0,1,.09-.09H3.1a.09.09,0,0,1,.08.09v10.7a.09.09,0,0,0,.09.09H17.66a.09.09,0,0,0,.09-.09V1.14a.09.09,0,0,1,.09-.09h1.59a.09.09,0,0,1,.09.09V23.83a.09.09,0,0,1-.09.08Z" transform="translate(0)"/><path class="cls-1" d="M58,2.74a.09.09,0,0,0-.09-.09H49.85a.09.09,0,0,1-.09-.09V1.17a.09.09,0,0,1,.09-.09H68a.09.09,0,0,1,.09.09V2.56a.09.09,0,0,1-.09.09H59.88a.09.09,0,0,0-.09.09V23.83a.09.09,0,0,1-.09.08H58.12a.09.09,0,0,1-.09-.08Z" transform="translate(0)"/><path class="cls-2" d="M58,2.74a.09.09,0,0,0-.09-.09H49.85a.09.09,0,0,1-.09-.09V1.17a.09.09,0,0,1,.09-.09H68a.09.09,0,0,1,.09.09V2.56a.09.09,0,0,1-.09.09H59.88a.09.09,0,0,0-.09.09V23.83a.09.09,0,0,1-.09.08H58.12a.09.09,0,0,1-.09-.08Z" transform="translate(0)"/><polygon class="cls-1" points="17.51 33.43 16.77 31.39 19.11 31.4 20.06 33.43 17.51 33.43"/><polygon class="cls-3" points="13.14 33.45 12.77 31.42 15.11 31.42 15.7 33.46 13.14 33.45"/><polygon class="cls-4" points="8.74 33.46 8.95 31.43 11.07 31.43 11.3 33.46 8.74 33.46"/><polygon class="cls-3" points="4.36 33.47 4.72 31.43 7.05 31.43 6.92 33.47 4.36 33.47"/><polygon class="cls-1" points="0.01 33.43 0.73 31.4 3.07 31.4 2.56 33.43 0.01 33.43"/><path class="cls-4" d="M25.42,33.49v-3.2h.25v3.2Z" transform="translate(0)"/><path class="cls-4" d="M27.9,31.23v.41a.89.89,0,0,1,.81-.45.94.94,0,0,1,1,1v1.3H29.5v-1.3a.72.72,0,0,0-.8-.78.78.78,0,0,0-.79.82v1.26h-.23V31.23Z" transform="translate(0)"/><path class="cls-4" d="M32.08,30.55v.68h.77v.19h-.77V32.8c0,.3.07.52.42.52a.91.91,0,0,0,.35-.09l.08.18a1,1,0,0,1-.43.12c-.48,0-.63-.29-.63-.73V31.42h-.49v-.19h.49v-.66Z" transform="translate(0)"/><path class="cls-4" d="M34.59,32.36a1.14,1.14,0,0,1,1.15-1.17,1.06,1.06,0,0,1,1.12,1.28h-2a.9.9,0,0,0,.92.84,1.06,1.06,0,0,0,.82-.35l.16.13a1.26,1.26,0,0,1-1,.44A1.12,1.12,0,0,1,34.59,32.36Zm2.07-.09a.83.83,0,0,0-.92-.87.91.91,0,0,0-.92.87Z" transform="translate(0)"/><path class="cls-4" d="M39,31.23v.41a.79.79,0,0,1,.75-.43.86.86,0,0,1,.49.13l-.1.18a.78.78,0,0,0-.39-.1.75.75,0,0,0-.75.76v1.31h-.22V31.23Z" transform="translate(0)"/><path class="cls-4" d="M42.16,31.23v.41a.86.86,0,0,1,.8-.45.94.94,0,0,1,1,1v1.3h-.22v-1.3a.73.73,0,0,0-.81-.78.78.78,0,0,0-.79.82v1.26h-.22V31.23Z" transform="translate(0)"/><path class="cls-4" d="M48.09,31.23v2.26h-.22V33a1,1,0,0,1-.93.52,1.17,1.17,0,0,1,0-2.33,1,1,0,0,1,.93.53v-.5ZM46,32.36a.91.91,0,0,0,.92,1,1,1,0,0,0,0-1.89A.9.9,0,0,0,46,32.36Z" transform="translate(0)"/><path class="cls-4" d="M50.47,30.55v.68h.77v.19h-.77V32.8c0,.3.07.52.42.52a1,1,0,0,0,.35-.09l.08.18a1,1,0,0,1-.43.12c-.48,0-.64-.29-.64-.73V31.42h-.48v-.19h.48v-.66Z" transform="translate(0)"/><path class="cls-4" d="M53.41,30.49a.19.19,0,0,1-.37,0A.19.19,0,0,1,53.41,30.49Zm-.3.73v2.27h.22V31.22Z" transform="translate(0)"/><path class="cls-4" d="M55.27,32.37a1.15,1.15,0,1,1,1.15,1.16A1.1,1.1,0,0,1,55.27,32.37Zm2.08,0a.93.93,0,1,0-1.86,0,.93.93,0,1,0,1.86,0Z" transform="translate(0)"/><path class="cls-4" d="M59.65,31.23v.41a.89.89,0,0,1,.81-.45.94.94,0,0,1,1,1v1.3h-.22v-1.3a.73.73,0,0,0-.81-.78.78.78,0,0,0-.79.82v1.26h-.23V31.23Z" transform="translate(0)"/><path class="cls-4" d="M65.59,31.23v2.26h-.22V33a1,1,0,0,1-.93.52,1.17,1.17,0,0,1,0-2.33,1,1,0,0,1,.93.53v-.5Zm-2.07,1.13a.91.91,0,0,0,.92,1,1,1,0,0,0,0-1.89A.9.9,0,0,0,63.52,32.36Z" transform="translate(0)"/><path class="cls-4" d="M67.78,30.29v3.2h-.23v-3.2Z" transform="translate(0)"/><path class="cls-3" d="M17.2,24.62a.09.09,0,0,1-.09-.08V14.32a.09.09,0,0,0-.08-.08H2.63a.09.09,0,0,0-.08.08V24.54a.09.09,0,0,1-.09.08H.87a.09.09,0,0,1-.09-.08V1.85a.09.09,0,0,1,.09-.09H2.46a.09.09,0,0,1,.09.09v10.7a.09.09,0,0,0,.08.09H17a.09.09,0,0,0,.08-.09V1.85a.09.09,0,0,1,.09-.09h1.59a.09.09,0,0,1,.09.09V24.54a.09.09,0,0,1-.09.08Z" transform="translate(0)"/><path class="cls-5" d="M17.2,24.62a.09.09,0,0,1-.09-.08V14.32a.09.09,0,0,0-.08-.08H2.63a.09.09,0,0,0-.08.08V24.54a.09.09,0,0,1-.09.08H.87a.09.09,0,0,1-.09-.08V1.85a.09.09,0,0,1,.09-.09H2.46a.09.09,0,0,1,.09.09v10.7a.09.09,0,0,0,.08.09H17a.09.09,0,0,0,.08-.09V1.85a.09.09,0,0,1,.09-.09h1.59a.09.09,0,0,1,.09.09V24.54a.09.09,0,0,1-.09.08Z" transform="translate(0)"/><path class="cls-3" d="M44.94,21.45a11.74,11.74,0,0,1-8.32,3.44c-7.71,0-11.73-5.39-11.76-11.57S28.78,1.5,36.62,1.5a11.73,11.73,0,0,1,8.32,3.43l-1.14,1a.09.09,0,0,1-.13,0s-3.34-2.84-7.05-2.84c-6.67,0-10.1,4.7-10.07,10.19s3.47,10,10.07,10c3.46,0,7.08-2.85,7.08-2.85a.09.09,0,0,1,.13,0Z" transform="translate(0)"/><path class="cls-5" d="M44.94,21.45a11.74,11.74,0,0,1-8.32,3.44c-7.71,0-11.73-5.39-11.76-11.57S28.78,1.5,36.62,1.5a11.73,11.73,0,0,1,8.32,3.43l-1.14,1a.09.09,0,0,1-.13,0s-3.34-2.84-7.05-2.84c-6.67,0-10.1,4.7-10.07,10.19s3.47,10,10.07,10c3.46,0,7.08-2.85,7.08-2.85a.09.09,0,0,1,.13,0Z" transform="translate(0)"/><path class="cls-3" d="M57.39,3.45a.09.09,0,0,0-.09-.09H49.21a.09.09,0,0,1-.09-.09V1.88a.09.09,0,0,1,.09-.09H67.33a.09.09,0,0,1,.09.09V3.27a.09.09,0,0,1-.09.09H59.24a.09.09,0,0,0-.09.09V24.54a.09.09,0,0,1-.09.08H57.48a.09.09,0,0,1-.09-.08Z" transform="translate(0)"/><path class="cls-5" d="M57.39,3.45a.09.09,0,0,0-.09-.09H49.21a.09.09,0,0,1-.09-.09V1.88a.09.09,0,0,1,.09-.09H67.33a.09.09,0,0,1,.09.09V3.27a.09.09,0,0,1-.09.09H59.24a.09.09,0,0,0-.09.09V24.54a.09.09,0,0,1-.09.08H57.48a.09.09,0,0,1-.09-.08Z" transform="translate(0)"/></g></g></svg>