<svg width="196" height="80" viewBox="0 0 196 80" fill="none" xmlns="http://www.w3.org/2000/svg">
<path d="M46.45 29.6499V25.3999H33.05V54.5999H46.45V50.3499C43.705 50.3499 41.0724 49.2594 39.1314 47.3184C37.1904 45.3774 36.1 42.7449 36.1 39.9999C36.1 37.2549 37.1904 34.6223 39.1314 32.6814C41.0724 30.7404 43.705 29.6499 46.45 29.6499Z" fill="#9397AD"/>
<path d="M46.45 29.6499V50.3499C49.195 50.3499 51.8276 49.2594 53.7686 47.3184C55.7096 45.3774 56.8 42.7449 56.8 39.9999C56.8 37.2549 55.7096 34.6223 53.7686 32.6814C51.8276 30.7404 49.195 29.6499 46.45 29.6499Z" fill="#9397AD"/>
<path d="M64.32 32.25H67.32V46.7H64.32V32.25Z" fill="#9397AD"/>
<path d="M69 41.7499C69 40.7103 69.3087 39.6941 69.8869 38.8301C70.4651 37.9661 71.2868 37.2932 72.2479 36.8967C73.209 36.5003 74.2661 36.3981 75.2853 36.6031C76.3045 36.8081 77.2399 37.3111 77.9729 38.0483C78.7059 38.7856 79.2036 39.7238 79.4028 40.7442C79.6019 41.7646 79.4937 42.8211 79.0917 43.7799C78.6897 44.7386 78.0122 45.5565 77.1449 46.1297C76.2776 46.703 75.2596 47.0058 74.22 46.9999C73.5305 47.0053 72.8468 46.873 72.2091 46.6106C71.5714 46.3483 70.9924 45.9613 70.5062 45.4724C70.02 44.9834 69.6364 44.4022 69.3777 43.763C69.1191 43.1238 68.9907 42.4394 69 41.7499ZM76.52 41.7499C76.5082 41.3017 76.3645 40.8669 76.1069 40.5C75.8493 40.133 75.4893 39.8501 75.0717 39.6867C74.6542 39.5233 74.1978 39.4866 73.7596 39.5813C73.3213 39.6759 72.9207 39.8976 72.6078 40.2188C72.2949 40.5399 72.0836 40.9461 72.0004 41.3867C71.9172 41.8273 71.9657 42.2826 72.1399 42.6957C72.3141 43.1088 72.6062 43.4615 72.9798 43.7094C73.3533 43.9574 73.7916 44.0897 74.24 44.0899C74.5453 44.0959 74.8485 44.0388 75.1307 43.9222C75.4129 43.8057 75.668 43.6322 75.8801 43.4126C76.0922 43.193 76.2567 42.9319 76.3634 42.6459C76.4701 42.3598 76.5166 42.0548 76.5 41.7499H76.52Z" fill="#9397AD"/>
<path d="M91.31 36.8001V46.2101C91.31 49.5301 88.71 50.9401 86.08 50.9401C85.1523 51.0162 84.2218 50.8319 83.3933 50.4079C82.5647 49.9839 81.8709 49.337 81.39 48.5401L83.92 47.0801C84.125 47.4935 84.4511 47.8345 84.8549 48.0578C85.2587 48.2811 85.7209 48.3761 86.18 48.3301C86.4725 48.3661 86.7693 48.3371 87.0492 48.2451C87.3292 48.153 87.5853 48.0003 87.7993 47.7977C88.0134 47.5951 88.18 47.3478 88.2873 47.0733C88.3946 46.7989 88.4399 46.5041 88.42 46.2101V45.3001C88.0709 45.7234 87.6279 46.0594 87.1263 46.2816C86.6246 46.5038 86.0781 46.606 85.53 46.5801C84.2039 46.5801 82.9322 46.0533 81.9945 45.1156C81.0568 44.178 80.53 42.9062 80.53 41.5801C80.53 40.254 81.0568 38.9823 81.9945 38.0446C82.9322 37.1069 84.2039 36.5801 85.53 36.5801C86.0781 36.5542 86.6246 36.6564 87.1263 36.8786C87.6279 37.1008 88.0709 37.4368 88.42 37.8601V36.8601L91.31 36.8001ZM88.42 41.5501C88.4399 41.0717 88.3163 40.5982 88.065 40.1906C87.8137 39.783 87.4463 39.4599 87.0098 39.2628C86.5734 39.0657 86.0881 39.0037 85.6161 39.0847C85.1442 39.1657 84.7072 39.386 84.3615 39.7173C84.0158 40.0486 83.7771 40.4758 83.6761 40.9439C83.5751 41.412 83.6164 41.8995 83.7947 42.3439C83.9731 42.7883 84.2803 43.1692 84.6768 43.4376C85.0734 43.706 85.5412 43.8497 86.02 43.8501C86.3325 43.8726 86.6462 43.8293 86.9408 43.7231C87.2355 43.6168 87.5047 43.4499 87.7308 43.2331C87.957 43.0164 88.1352 42.7546 88.2539 42.4647C88.3726 42.1748 88.4292 41.8632 88.42 41.5501Z" fill="#9397AD"/>
<path d="M93 41.75C93 40.7112 93.3082 39.6958 93.8855 38.8322C94.4628 37.9686 95.2833 37.2957 96.2432 36.8987C97.2031 36.5016 98.2592 36.3982 99.2779 36.6016C100.297 36.805 101.232 37.306 101.966 38.0412C102.7 38.7765 103.199 39.7129 103.4 40.7319C103.602 41.751 103.496 42.8069 103.098 43.766C102.699 44.7252 102.024 45.5444 101.16 46.1201C100.295 46.6958 99.2788 47.002 98.24 47C97.5492 47.0067 96.8639 46.8754 96.2245 46.6138C95.5851 46.3522 95.0043 45.9656 94.5163 45.4766C94.0282 44.9876 93.6427 44.4061 93.3823 43.7662C93.122 43.1263 92.992 42.4408 93 41.75ZM100.52 41.75C100.508 41.3014 100.364 40.8662 100.106 40.499C99.8482 40.1319 99.4875 39.849 99.0694 39.6859C98.6513 39.5228 98.1944 39.4867 97.7559 39.5822C97.3174 39.6776 96.9168 39.9004 96.6043 40.2225C96.2918 40.5446 96.0813 40.9518 95.9993 41.393C95.9172 41.8342 95.9671 42.2898 96.1428 42.7027C96.3185 43.1157 96.6122 43.4676 96.9871 43.7144C97.3619 43.9611 97.8012 44.0918 98.25 44.09C98.5553 44.096 98.8585 44.0389 99.1407 43.9223C99.4229 43.8058 99.678 43.6323 99.8901 43.4127C100.102 43.1931 100.267 42.932 100.373 42.646C100.48 42.3599 100.527 42.0549 100.51 41.75H100.52Z" fill="#9397AD"/>
<path d="M104.87 34.1501C104.87 33.7981 104.974 33.4539 105.17 33.1612C105.366 32.8685 105.644 32.6403 105.969 32.5056C106.294 32.3709 106.652 32.3356 106.997 32.4043C107.342 32.473 107.66 32.6425 107.909 32.8915C108.158 33.1404 108.327 33.4576 108.396 33.8028C108.464 34.1481 108.429 34.506 108.294 34.8313C108.16 35.1565 107.932 35.4345 107.639 35.6301C107.346 35.8257 107.002 35.9301 106.65 35.9301C106.179 35.9249 105.73 35.7357 105.397 35.403C105.064 35.0703 104.875 34.6206 104.87 34.1501ZM105.16 36.8001H108.16V46.7001H105.16V36.8001Z" fill="#9397AD"/>
<path d="M121 41.7501C121.034 42.4085 120.937 43.0671 120.715 43.6879C120.493 44.3087 120.151 44.8795 119.707 45.3674C119.264 45.8554 118.728 46.2508 118.132 46.531C117.535 46.8112 116.889 46.9706 116.23 47.0001C115.671 47.0373 115.111 46.9478 114.592 46.7383C114.072 46.5287 113.607 46.2046 113.23 45.7901V50.6801H110.23V36.8001H113.23V37.7301C113.607 37.3168 114.073 36.9942 114.593 36.7864C115.112 36.5785 115.672 36.4909 116.23 36.5301C116.886 36.5596 117.53 36.7181 118.124 36.9964C118.719 37.2747 119.253 37.6675 119.696 38.1522C120.139 38.6369 120.482 39.2041 120.706 39.8215C120.93 40.4388 121.03 41.0941 121 41.7501ZM118 41.7501C117.988 41.2856 117.84 40.835 117.573 40.4547C117.306 40.0744 116.933 39.7812 116.5 39.6121C116.067 39.4429 115.594 39.4053 115.14 39.5038C114.686 39.6023 114.271 39.8327 113.948 40.166C113.624 40.4993 113.406 40.9207 113.321 41.3775C113.236 41.8342 113.287 42.3059 113.469 42.7335C113.651 43.161 113.955 43.5254 114.343 43.781C114.731 44.0366 115.185 44.1719 115.65 44.1701C115.968 44.1836 116.286 44.1297 116.582 44.0119C116.878 43.8941 117.145 43.7151 117.367 43.4866C117.589 43.2581 117.76 42.9852 117.869 42.686C117.978 42.3867 118.023 42.0678 118 41.7501Z" fill="#9397AD"/>
<path d="M130.13 43.73C130.13 46.01 128.13 46.98 126.01 46.98C125.145 47.0578 124.277 46.8745 123.518 46.4538C122.758 46.0331 122.143 45.3943 121.75 44.62L124.33 43.16C124.432 43.5168 124.654 43.8277 124.958 44.0407C125.262 44.2537 125.63 44.3558 126 44.33C126.71 44.33 127.07 44.11 127.07 43.71C127.07 42.62 122.2 43.2 122.2 39.77C122.2 37.61 124.02 36.53 126.08 36.53C126.863 36.4949 127.641 36.6726 128.331 37.0441C129.021 37.4156 129.598 37.9671 130 38.64L127.42 40C127.306 39.742 127.12 39.5226 126.884 39.3682C126.648 39.2138 126.372 39.1311 126.09 39.13C125.57 39.13 125.26 39.33 125.26 39.68C125.26 40.82 130.13 40.07 130.13 43.73Z" fill="#9397AD"/>
<path d="M141 36.8V46.7H138V45.77C137.659 46.1817 137.226 46.5074 136.737 46.7211C136.247 46.9348 135.714 47.0303 135.18 47C133.18 47 131.47 45.57 131.47 42.9V36.8H134.47V42.45C134.446 42.6862 134.474 42.9247 134.552 43.1491C134.63 43.3734 134.755 43.5782 134.919 43.7494C135.084 43.9205 135.284 44.0539 135.505 44.1404C135.726 44.2268 135.963 44.2642 136.2 44.25C137.28 44.25 138.04 43.61 138.04 42.25V36.8H141Z" fill="#9397AD"/>
<path d="M158 40.62V46.7H155V40.88C155 39.88 154.53 39.26 153.58 39.26C152.63 39.26 152.03 39.95 152.03 41.12V46.7H149.03V40.88C149.03 39.88 148.56 39.26 147.61 39.26C146.66 39.26 146.06 39.95 146.06 41.12V46.7H143.06V36.8H146.06V37.71C146.371 37.308 146.776 36.9896 147.241 36.7836C147.705 36.5776 148.214 36.4904 148.72 36.53C149.227 36.5035 149.733 36.6095 150.187 36.8374C150.641 37.0653 151.028 37.4074 151.31 37.83C151.64 37.3884 152.076 37.0376 152.578 36.8103C153.079 36.5829 153.631 36.4865 154.18 36.53C156.52 36.53 158 38.15 158 40.62Z" fill="#9397AD"/>
<path d="M160.52 36.7401C161.735 36.7401 162.72 35.7551 162.72 34.5401C162.72 33.3251 161.735 32.3401 160.52 32.3401C159.305 32.3401 158.32 33.3251 158.32 34.5401C158.32 35.7551 159.305 36.7401 160.52 36.7401Z" fill="#9397AD"/>
</svg>
