<svg width="196" height="80" viewBox="0 0 196 80" fill="none" xmlns="http://www.w3.org/2000/svg">
<path d="M62.52 35.25C62.88 35.25 63 35.38 63 35.73V43.65H67.07C67.42 43.65 67.55 43.78 67.55 44.13V44.83C67.55 45.18 67.42 45.31 67.07 45.31H61.71C61.36 45.31 61.22 45.18 61.22 44.83V35.73C61.22 35.38 61.36 35.25 61.71 35.25H62.52Z" fill="#9397AD"/>
<path d="M71.1 38.74C71.1 36.43 72.56 35.04 75.1 35.04C77.64 35.04 79.1 36.43 79.1 38.74V41.82C79.1 44.13 77.63 45.52 75.1 45.52C72.57 45.52 71.1 44.13 71.1 41.82V38.74ZM77.42 38.74C77.42 37.44 76.61 36.74 75.15 36.74C73.69 36.74 72.89 37.45 72.89 38.74V41.84C72.89 43.15 73.69 43.84 75.15 43.84C76.61 43.84 77.42 43.12 77.42 41.84V38.74Z" fill="#9397AD"/>
<path d="M91.0101 39.8C91.4001 39.8 91.4901 39.93 91.4901 40.28V42.18C91.5007 42.6275 91.411 43.0718 91.2276 43.4801C91.0441 43.8885 90.7717 44.2506 90.4301 44.54C89.5818 45.2155 88.5122 45.5506 87.4301 45.48C84.8401 45.48 83.4301 44.09 83.4301 41.78V38.68C83.4301 36.4 84.8901 35 87.4301 35C89.4301 35 90.7301 35.79 91.2801 37.37C91.3109 37.4294 91.3274 37.4951 91.3283 37.5619C91.3292 37.6288 91.3145 37.695 91.2854 37.7551C91.2563 37.8153 91.2135 37.8679 91.1605 37.9087C91.1075 37.9494 91.0457 37.9773 90.9801 37.99L90.2001 38.26C89.8601 38.38 89.7201 38.31 89.6001 37.96C89.4344 37.5329 89.1311 37.1731 88.7381 36.9377C88.3451 36.7023 87.8849 36.6045 87.4301 36.66C85.9601 36.66 85.1601 37.37 85.1601 38.66V41.84C85.1601 43.15 85.9701 43.84 87.4301 43.84C88.8901 43.84 89.7901 43.17 89.7901 42.19V41.45H87.6201C87.2601 41.45 87.1301 41.31 87.1301 40.96V40.28C87.1301 39.93 87.2601 39.8 87.6201 39.8H91.0101Z" fill="#9397AD"/>
<path d="M95.62 38.74C95.62 36.43 97.08 35.04 99.62 35.04C102.16 35.04 103.62 36.43 103.62 38.74V41.82C103.62 44.13 102.15 45.52 99.62 45.52C97.09 45.52 95.62 44.13 95.62 41.82V38.74ZM101.93 38.74C101.93 37.44 101.12 36.74 99.67 36.74C98.22 36.74 97.4 37.45 97.4 38.74V41.84C97.4 43.15 98.21 43.84 99.67 43.84C101.13 43.84 101.93 43.12 101.93 41.84V38.74Z" fill="#9397AD"/>
<path d="M108.33 35.54C108.33 35.32 108.4 35.25 108.62 35.25H109.08C109.3 35.25 109.35 35.32 109.35 35.54V45.02C109.35 45.24 109.35 45.31 109.08 45.31H108.62C108.4 45.31 108.33 45.24 108.33 45.02V35.54Z" fill="#9397AD"/>
<path d="M118.46 35.25C119.293 35.25 120.091 35.5808 120.68 36.1697C121.269 36.7585 121.6 37.5572 121.6 38.39C121.6 39.2228 121.269 40.0215 120.68 40.6103C120.091 41.1992 119.293 41.53 118.46 41.53H115.46V45.02C115.46 45.24 115.41 45.31 115.2 45.31H114.73C114.52 45.31 114.44 45.24 114.44 45.02V35.54C114.44 35.32 114.52 35.25 114.73 35.25H118.46ZM118.37 40.54C118.656 40.54 118.94 40.4836 119.204 40.3741C119.469 40.2645 119.709 40.1039 119.911 39.9015C120.114 39.6991 120.274 39.4587 120.384 39.1943C120.494 38.9298 120.55 38.6463 120.55 38.36C120.55 38.0737 120.494 37.7902 120.384 37.5257C120.274 37.2613 120.114 37.0209 119.911 36.8185C119.709 36.6161 119.469 36.4555 119.204 36.3459C118.94 36.2364 118.656 36.18 118.37 36.18H115.37V40.54H118.37Z" fill="#9397AD"/>
<path d="M129.41 35.0501C130.182 34.9649 130.961 35.131 131.631 35.5237C132.301 35.9165 132.827 36.5149 133.13 37.2301C133.21 37.3901 133.13 37.5201 132.97 37.6001L132.53 37.8001C132.35 37.8701 132.28 37.8601 132.17 37.6701C131.943 37.1393 131.554 36.6943 131.058 36.3995C130.562 36.1047 129.984 35.9753 129.41 36.0301C127.72 36.0301 126.8 36.7001 126.8 37.9001C126.79 38.2668 126.913 38.6248 127.147 38.9078C127.38 39.1908 127.708 39.3799 128.07 39.4401C128.608 39.6155 129.165 39.723 129.73 39.7601C130.413 39.7965 131.087 39.9347 131.73 40.1701C132.223 40.326 132.647 40.6466 132.931 41.0782C133.215 41.5098 133.342 42.026 133.29 42.5401C133.29 44.4101 131.93 45.5401 129.43 45.5401C128.61 45.6339 127.783 45.4439 127.086 45.0017C126.389 44.5596 125.864 43.8919 125.6 43.1101C125.582 43.0745 125.573 43.0354 125.572 42.9956C125.571 42.9558 125.579 42.9164 125.595 42.8801C125.612 42.8438 125.636 42.8115 125.666 42.7856C125.696 42.7596 125.732 42.7407 125.77 42.7301L126.21 42.5701C126.245 42.5559 126.282 42.5491 126.319 42.5501C126.357 42.5511 126.393 42.5599 126.427 42.5759C126.461 42.5919 126.491 42.6147 126.516 42.643C126.54 42.6713 126.559 42.7043 126.57 42.7401C126.794 43.305 127.191 43.784 127.706 44.1077C128.22 44.4313 128.824 44.5828 129.43 44.5401C131.32 44.5401 132.25 43.8801 132.25 42.5401C132.268 42.1879 132.16 41.8408 131.945 41.5606C131.731 41.2805 131.424 41.0854 131.08 41.0101C130.563 40.8558 130.029 40.7618 129.49 40.7301L128.41 40.5901C128.072 40.5184 127.738 40.4282 127.41 40.3201C127.086 40.2222 126.784 40.0626 126.52 39.8501C126.255 39.6099 126.046 39.3143 125.907 38.9842C125.769 38.6541 125.705 38.2977 125.72 37.9401C125.79 36.1901 127.1 35.0501 129.41 35.0501Z" fill="#9397AD"/>
<path d="M138.68 41.89C138.722 42.5972 139.033 43.2615 139.549 43.7472C140.065 44.2329 140.747 44.5033 141.455 44.5033C142.163 44.5033 142.845 44.2329 143.361 43.7472C143.877 43.2615 144.187 42.5972 144.23 41.89V35.54C144.23 35.32 144.3 35.25 144.52 35.25H144.98C145.2 35.25 145.27 35.32 145.27 35.54V41.88C145.27 44.15 143.93 45.52 141.46 45.52C138.99 45.52 137.65 44.15 137.65 41.88V35.54C137.65 35.32 137.72 35.25 137.93 35.25H138.4C138.61 35.25 138.68 35.32 138.68 35.54V41.89Z" fill="#9397AD"/>
<path d="M159.07 35.25C159.29 35.25 159.36 35.32 159.36 35.54V45.02C159.36 45.24 159.29 45.31 159.07 45.31H158.65C158.44 45.31 158.37 45.24 158.37 45.02V39.25C158.37 38.4105 158.427 37.5719 158.54 36.74H158.48C158.168 37.5007 157.803 38.2391 157.39 38.95L155.24 42.74C155.214 42.8058 155.168 42.862 155.109 42.9013C155.05 42.9405 154.981 42.961 154.91 42.96H154.63C154.558 42.9604 154.488 42.9397 154.427 42.9007C154.367 42.8616 154.319 42.8058 154.29 42.74L152.11 38.91C151.723 38.2093 151.389 37.4806 151.11 36.73H151.05C151.152 37.5695 151.206 38.4143 151.21 39.26V45.02C151.21 45.24 151.14 45.31 150.92 45.31H150.53C150.31 45.31 150.24 45.24 150.24 45.02V35.54C150.24 35.32 150.31 35.25 150.53 35.25H150.89C150.972 35.2424 151.055 35.2603 151.126 35.3015C151.198 35.3427 151.255 35.4051 151.29 35.48L154.79 41.7L158.27 35.54C158.38 35.33 158.44 35.3 158.66 35.3L159.07 35.25Z" fill="#9397AD"/>
<path d="M44.73 43.79V51.02C44.73 51.2972 44.6199 51.563 44.4239 51.7589C44.228 51.9549 43.9622 52.065 43.685 52.065C43.4079 52.065 43.1421 51.9549 42.9461 51.7589C42.7501 51.563 42.64 51.2972 42.64 51.02V43.8C42.931 44.0125 43.2798 44.1311 43.64 44.14C44.0326 44.1512 44.4173 44.0277 44.73 43.79ZM53.63 41.7C53.3648 41.7 53.1104 41.8054 52.9229 41.9929C52.7354 42.1804 52.63 42.4348 52.63 42.7V43.96C52.63 44.2372 52.7401 44.503 52.9361 44.6989C53.132 44.8949 53.3978 45.005 53.675 45.005C53.9522 45.005 54.218 44.8949 54.4139 44.6989C54.6099 44.503 54.72 44.2372 54.72 43.96V42.75C54.7278 42.6066 54.7046 42.4632 54.652 42.3296C54.5994 42.196 54.5187 42.0752 54.4152 41.9756C54.3118 41.876 54.1881 41.7998 54.0527 41.7522C53.9172 41.7047 53.773 41.6869 53.63 41.7ZM40.37 46.53C40.0102 46.5192 39.6618 46.4008 39.37 46.19V53.44C39.37 53.7185 39.4806 53.9856 39.6775 54.1825C39.8744 54.3794 40.1415 54.49 40.42 54.49C40.6985 54.49 40.9656 54.3794 41.1625 54.1825C41.3594 53.9856 41.47 53.7185 41.47 53.44V46.24C41.1435 46.4511 40.7582 46.5527 40.37 46.53ZM50.37 39.53C50.2345 39.5232 50.0991 39.5441 49.9719 39.5913C49.8448 39.6385 49.7286 39.7111 49.6303 39.8046C49.5321 39.8982 49.454 40.0107 49.4006 40.1354C49.3473 40.2601 49.3198 40.3944 49.32 40.53V46.1C49.32 46.3785 49.4306 46.6456 49.6275 46.8425C49.8245 47.0394 50.0915 47.15 50.37 47.15C50.6485 47.15 50.9156 47.0394 51.1125 46.8425C51.3094 46.6456 51.42 46.3785 51.42 46.1V40.6C51.428 40.4557 51.4046 40.3114 51.3514 40.177C51.2982 40.0426 51.2166 39.9213 51.112 39.8215C51.0074 39.7217 50.8825 39.6457 50.7458 39.5989C50.6091 39.552 50.4638 39.5353 50.32 39.55L50.37 39.53ZM47.05 41.67C46.6733 41.6674 46.3067 41.5487 46 41.33V48.6C46 48.8785 46.1106 49.1456 46.3075 49.3425C46.5045 49.5394 46.7715 49.65 47.05 49.65C47.3285 49.65 47.5955 49.5394 47.7925 49.3425C47.9894 49.1456 48.1 48.8785 48.1 48.6V41.34C47.7828 41.5763 47.3955 41.6995 47 41.69L47.05 41.67ZM38.1 47.24V26.93C38.0974 26.6824 37.9972 26.4459 37.8212 26.2718C37.6452 26.0977 37.4076 26 37.16 26H36.94C36.6924 26 36.4548 26.0977 36.2788 26.2718C36.1028 26.4459 36.0026 26.6824 36 26.93V47.24C36 47.4893 36.099 47.7284 36.2753 47.9047C36.4516 48.081 36.6907 48.18 36.94 48.18H37.16C37.4093 48.18 37.6484 48.081 37.8247 47.9047C38.001 47.7284 38.1 47.4893 38.1 47.24ZM40.48 45.76H40.26C40.0107 45.76 39.7716 45.661 39.5953 45.4847C39.419 45.3084 39.32 45.0693 39.32 44.82V29.35C39.3226 29.1024 39.4228 28.8659 39.5988 28.6918C39.7748 28.5177 40.0124 28.42 40.26 28.42H40.48C40.7276 28.42 40.9652 28.5177 41.1412 28.6918C41.3172 28.8659 41.4174 29.1024 41.42 29.35V44.84C41.42 45.0893 41.321 45.3284 41.1447 45.5047C40.9684 45.681 40.7293 45.78 40.48 45.78V45.76ZM43.79 43.38H43.56C43.3134 43.38 43.0768 43.282 42.9024 43.1076C42.728 42.9332 42.63 42.6967 42.63 42.45V31.75C42.6287 31.627 42.6518 31.505 42.6979 31.391C42.744 31.277 42.8123 31.1733 42.8988 31.0859C42.9853 30.9985 43.0883 30.9291 43.2018 30.8817C43.3153 30.8344 43.437 30.81 43.56 30.81H43.79C44.0376 30.8126 44.2741 30.9128 44.4482 31.0888C44.6224 31.2648 44.72 31.5024 44.72 31.75V42.45C44.72 42.6967 44.622 42.9332 44.4476 43.1076C44.2732 43.282 44.0367 43.38 43.79 43.38ZM47.1 40.93H46.89C46.6424 40.93 46.4048 40.8324 46.2288 40.6582C46.0528 40.4841 45.9526 40.2476 45.95 40V34.24C45.9418 34.1116 45.96 33.9829 46.0036 33.8618C46.0471 33.7408 46.1151 33.6299 46.2032 33.5362C46.2913 33.4424 46.3977 33.3678 46.5159 33.3168C46.634 33.2659 46.7613 33.2397 46.89 33.24H47.11C47.3593 33.24 47.5984 33.339 47.7747 33.5153C47.951 33.6916 48.05 33.9307 48.05 34.18V39.98C48.0513 40.1043 48.028 40.2276 47.9813 40.3428C47.9347 40.458 47.8657 40.5628 47.7782 40.6512C47.6908 40.7395 47.5868 40.8096 47.472 40.8575C47.3573 40.9054 47.2343 40.93 47.11 40.93H47.1ZM50.42 38.78H50.2C49.9507 38.78 49.7116 38.681 49.5353 38.5047C49.359 38.3284 49.26 38.0893 49.26 37.84V36.35C49.2626 36.1024 49.3628 35.8659 49.5388 35.6918C49.7148 35.5176 49.9524 35.42 50.2 35.42H50.42C50.6676 35.42 50.9052 35.5176 51.0812 35.6918C51.2572 35.8659 51.3574 36.1024 51.36 36.35V37.84C51.36 38.0876 51.2624 38.3252 51.0882 38.5012C50.9141 38.6772 50.6776 38.7774 50.43 38.78H50.42Z" fill="#9397AD"/>
</svg>
