<svg xmlns="http://www.w3.org/2000/svg" viewBox="0 0 46.99 13"><defs><style>.cls-1{fill:#212121;}.cls-2{fill:#77b539;fill-rule:evenodd;}</style></defs><g id="Capa_2" data-name="Capa 2"><g id="Capa_1-2" data-name="Capa 1"><path class="cls-1" d="M13.42,0l.07,10H15V0ZM32,0V10h1.8s0-3.61,0-3.6,2.69,3.74,2.71,3.73,1.6-.58,1.6-.59L35.46,6.09s2.25-2.51,2.23-2.53A11,11,0,0,0,36.38,3s-2.59,2.79-2.59,2.79V0ZM2.09,3.05a2.29,2.29,0,0,0-1.51,1,1.66,1.66,0,0,0,0,1.49A4.56,4.56,0,0,0,1.93,6.82c.78.55,1.08.83,1.16,1.09a.76.76,0,0,1-.44.93,1,1,0,0,1-.6.09A1.94,1.94,0,0,1,.88,8.48c-.14-.1-.27-.17-.29-.15L.28,8.8,0,9.23l.1.08.43.26a3.64,3.64,0,0,0,3.83-.23A1.81,1.81,0,0,0,5,7.69c-.09-.58-.41-1-1.42-1.69A5.32,5.32,0,0,1,2.3,4.94a.58.58,0,0,1,.3-.83A1,1,0,0,1,3.21,4,1.4,1.4,0,0,1,4,4.2l.34.16L4.55,4a1.62,1.62,0,0,0,.24-.44,3.59,3.59,0,0,0-.94-.39,5,5,0,0,0-1.76-.07ZM10,3.93a2.69,2.69,0,0,1,1,2.85,4.2,4.2,0,0,1-.38,1.3,1.91,1.91,0,0,1-.71.68,1.58,1.58,0,0,1-1.52-.19,3.06,3.06,0,0,1-.78-2.65,2.24,2.24,0,0,1,1.14-2A1.63,1.63,0,0,1,10,3.93ZM9.3,2.78a2.53,2.53,0,0,0-1.25.71l-.37.35V3H6V13H7.68V8.92L8,9.24a2.37,2.37,0,0,0,2.1.7,2.89,2.89,0,0,0,1.31-.47A4,4,0,0,0,13,5.69a3.11,3.11,0,0,0-2.13-2.86A4.1,4.1,0,0,0,9.3,2.78Zm7,.22s.05,5.28.09,5.44a2.16,2.16,0,0,0,1,1.37,2.43,2.43,0,0,0,1.33.29,2.66,2.66,0,0,0,2-.8L21,9v1h1.74l0-7H21s0,4.35,0,4.5a1.68,1.68,0,0,1-1.06,1.27,2.82,2.82,0,0,1-1.08.13A1.08,1.08,0,0,1,18,8V3Zm14.48,7s-.05-5.28-.09-5.44a2.23,2.23,0,0,0-1-1.37,2.47,2.47,0,0,0-1.34-.29,2.65,2.65,0,0,0-2,.8L26,4V3H24.25l0,7H26s0-4.35,0-4.5A1.67,1.67,0,0,1,27,4.23a2.59,2.59,0,0,1,1.09-.13A1,1,0,0,1,29,5v5Z"/><path class="cls-2" d="M40,2.5V4l6,2L40,8.6V10l7-3V5Z"/></g></g></svg>