<svg xmlns="http://www.w3.org/2000/svg" viewBox="0 0 293.48 58.44"><defs><style>.cls-1,.cls-3{fill:#47784d;}.cls-2{fill:#d7821a;}.cls-3{opacity:0.7;font-size:17.77px;font-family:Arial-Black, Arial;font-weight:800;}</style></defs><g id="Capa_2" data-name="Capa 2"><g id="Capa_1-2" data-name="Capa 1"><path class="cls-1" d="M241.28,28.06h-9.62L223.36,52h9.2l.69-3h6.57l.79,3h9.19Zm-6.47,15.26,1.58-7.3h.31c.16,1,1.6,7.3,1.6,7.3Z"/><path class="cls-1" d="M151.5,28.06,143.2,52h9.19l.7-3h6.56l.8,3h9.19l-8.53-23.91Zm3.14,15.26,1.59-7.3h.31c.16,1,1.59,7.3,1.59,7.3Z"/><path class="cls-1" d="M18.2,39.74h7.26c-.36,3.95-3.31,5.95-7.17,5.95-5.85,0-9-5.4-9-10.71s3-10.81,8.89-10.81c3.59,0,6.17,2.18,7.4,5.45L34,26.08c-3-6.4-8.39-9.58-15.43-9.58C7.53,16.5,0,23.81,0,34.93,0,45.69,7.49,53,18.24,53,24,53,29,51,32.36,46.28c3-4.27,3.39-8.54,3.49-13.53H18.2Z"/><rect class="cls-1" x="189.24" y="28.57" width="8.26" height="23.29"/><polygon class="cls-1" points="181.49 21.59 173.23 21.59 173.23 28.57 170.55 28.57 170.55 35.38 173.23 35.38 173.23 51.86 181.49 51.86 181.49 35.38 186.16 35.38 186.16 28.57 181.49 28.57 181.49 21.59"/><path class="cls-1" d="M193.37,15A4.63,4.63,0,1,0,198,19.64,4.65,4.65,0,0,0,193.37,15Z"/><path class="cls-1" d="M201.71,40.46c0,7,5.76,12.17,12.66,12.17a13,13,0,0,0,5.81-1.32v-7A6.35,6.35,0,0,1,216,45.91a5.53,5.53,0,0,1-5.81-5.71,5.6,5.6,0,0,1,5.68-5.68,7.37,7.37,0,0,1,4.27,1.63v-7a11.31,11.31,0,0,0-5.45-1.37C207.42,27.8,201.71,33,201.71,40.46Z"/><path class="cls-1" d="M84.11,27.8c-3.22,0-5.53,1-7.44,3.78h-.09v-3H68.32V51.86h8.26V39.79c0-2.91,1-5.41,4.31-5.41,4.09,0,3.72,3.91,3.72,6.13V51.86h8.26V37.47C92.87,31.75,90.37,27.8,84.11,27.8Z"/><path class="cls-1" d="M109.92,27.8C102.35,27.8,97,32.48,97,40.24c0,8,5.76,12.39,13.48,12.39,5.31,0,10.52-2.5,11.84-8h-7.94a4.14,4.14,0,0,1-4,2.14c-3.41,0-5.17-1.82-5.17-5.18h17.38v-.86C122.68,32.79,118,27.8,109.92,27.8Zm-4.49,9a5,5,0,0,1,9.58,0Z"/><path class="cls-1" d="M144.36,28.26h-1.59a8.08,8.08,0,0,0-7.53,4.13h-.09V28.57h-8.26V51.86h8.26v-9.4c0-4,1.14-7,5.72-7a6.72,6.72,0,0,1,3.49.77Z"/><path class="cls-1" d="M51.36,27.8c-7.58,0-12.89,4.68-12.89,12.44,0,8,5.76,12.39,13.48,12.39,5.31,0,10.52-2.5,11.84-8H55.85a4.14,4.14,0,0,1-4,2.14c-3.4,0-5.17-1.82-5.17-5.18H64.11v-.86C64.11,32.79,59.44,27.8,51.36,27.8Zm-4.49,9a5,5,0,0,1,9.57,0Z"/><polygon class="cls-2" points="147.99 8.77 153.17 8.77 159.1 25.44 153.08 25.44 147.99 8.77"/><polygon class="cls-2" points="167.8 0 162.25 0 157.25 13.79 160.4 22.52 167.8 0"/><text class="cls-3" transform="translate(255 52.99)">S.A.</text></g></g></svg>