<svg xmlns="http://www.w3.org/2000/svg" viewBox="0 0 156.41 35.51"><defs><style>.cls-1{fill:#22419a;}.cls-2{fill:#21419a;}.cls-3{fill:#23429b;}.cls-4{fill:#23439b;}.cls-5{fill:#398ac9;}.cls-6{fill:#204099;}</style></defs><g id="Capa_2" data-name="Capa 2"><g id="Capa_1-2" data-name="Capa 1"><path class="cls-1" d="M104.68,18.79,108,28.33h-2.71l-3.12-8.69a3.27,3.27,0,0,0-2.71,1.24v7.17c-.87.59-1.64.33-2.58.24,0-6.13-.09-12.26,0-18.39.05-2.21,2-2.76,3.8-2.95,2.17-.22,4.47-.19,5.73,2S106.71,16.86,104.68,18.79Zm-.61-8.57c-1.58-1.37-3.09-1.43-4.58,0v7.31a11.43,11.43,0,0,0,4.58-1.82Z"/><path class="cls-2" d="M72.26,7.23c2.42,0,4.72,0,7,0a2.53,2.53,0,0,1,2.61,2.09c.29,2.8.7,5.68-.47,8.49,1.23,2.59.72,5.41.54,8.15-.11,1.55-1.47,2.41-3.1,2.43-2.15,0-4.3,0-6.6,0ZM79,25.94a8.93,8.93,0,0,0,.19-6.29,6,6,0,0,0-4.44-.58v7A8.58,8.58,0,0,0,79,25.94Zm-4.26-9.61a8.27,8.27,0,0,0,4.4-.24c.61-2.17.91-4.38-.25-6.55a10.22,10.22,0,0,0-4.15-.11Z"/><path class="cls-2" d="M156.38,28.19a3.54,3.54,0,0,1-2.64,0V18.9c-1.78.42-3.36.7-4.8,1.91V28c-.81.63-1.53.35-2.26.35a2.45,2.45,0,0,1-.24-.65c0-5.68,0-11.36,0-17,0-2.4,1.41-3.59,4.27-3.78,3.22-.23,5.57.91,5.63,3.15C156.48,16.1,156.38,22.16,156.38,28.19Zm-7.32-18v7.47c1.65-.64,3.24-.81,4.52-1.9v-5.7A3.24,3.24,0,0,0,149.06,10.19Z"/><path class="cls-2" d="M69.4,28.33H66.78V18.76c-1.75.65-3.37.79-4.75,2v7.16c-.83.79-1.6.33-2.55.51V9.87a2.09,2.09,0,0,1,.8-1.67c2.08-1.67,4.43-1.62,6.8-.86,2.17.69,2.35,2.49,2.33,4.45C69.36,17.27,69.4,22.76,69.4,28.33ZM66.6,15.78a26.44,26.44,0,0,0,0-5.55c-2.21-1.45-2.87-1.41-4.58.21v7.19C63.7,17.09,65.26,16.83,66.6,15.78Z"/><path class="cls-3" d="M120.75,7.3h2.63V25.36a3.35,3.35,0,0,0,4.72-.06V7.56a3.38,3.38,0,0,1,2.7-.14c0,6,.29,12.08-.18,18.13-.16,2.14-2.16,3.22-5.14,3.12s-4.65-1.18-4.69-3.39C120.68,19.37,120.75,13.46,120.75,7.3Z"/><path class="cls-2" d="M136,28.2a3.91,3.91,0,0,1-2.46,0c0-6-.1-12.08,0-18.13.05-2.26,2.32-3.41,5.56-3.21,2.84.16,4.47,1.37,4.35,3.7-.14,2.8,1.32,6.07-2.07,8.07,1.1,3.22,2.16,6.3,3.22,9.38-.82.6-1.6.31-2.6.3-1-2.84-2.06-5.74-3.09-8.58-1.05-.29-1.74.28-2.6.71C135.75,23,136.31,25.57,136,28.2Zm4.69-12.27a10.25,10.25,0,0,0,0-6c-1.53-1-2.9-1.16-4.39.16a28.92,28.92,0,0,0-.1,7.45A15.9,15.9,0,0,0,140.67,15.93Z"/><path class="cls-2" d="M94,7.23v2H88.29c-1.45,2.4-.59,4.7-.82,7.13h4.69c.83.79.46,1.52.58,2.46H87.58c-.11,2.46-.36,4.64.14,6.76,2,1.26,4.1.22,6,.84a1.66,1.66,0,0,1,0,1.94c-1.83,0-3.74.07-5.64,0a3,3,0,0,1-3.1-3c-.1-5.11-.08-10.23,0-15.35a2.71,2.71,0,0,1,2.78-2.76C89.75,7.15,91.74,7.23,94,7.23Z"/><path class="cls-4" d="M118.45,7.21a1.75,1.75,0,0,1,.18,1.87c-1.91.72-4.1-.42-6.09.78-.6,2.07-.11,4.21-.32,6.51h4.63c1,.74.57,1.5.69,2.23-1.66.64-3.37,0-5.18.46v8.85c-.9.77-1.7.44-2.58.43-.54-1.77-.2-3.6-.23-5.39-.06-3.9,0-7.81,0-11.72,0-2.93,1.16-4,4.08-4Z"/><path class="cls-5" d="M7.66,20.19c7.81,0,15.62-.15,23.43,0a23.84,23.84,0,0,0,13-3C50.53,21.6,49.65,30.5,42.47,34a12,12,0,0,1-5,1.38c-7.1.11-14.21.05-21.62.05l2.73-13.17H26L24.59,29.7c4.11-.05,8.14.47,12.13-.34A4.82,4.82,0,0,0,40.81,24c-.28-2.14-2.07-3.43-5-3.43-9.2,0-18.39,0-27.59,0a.9.9,0,0,1-.46-.09C7.68,20.49,7.69,20.31,7.66,20.19Z"/><path class="cls-5" d="M7.55,35.51H0L6.43,22.29H14Z"/><path class="cls-6" d="M7.4,20.64a34.63,34.63,0,0,1,2.76-6c4.52,0,9.06,0,13.6,0,4.31,0,8.62.23,12.93-.2a6.26,6.26,0,0,0,3.15-1,4.14,4.14,0,0,0,1.78-4.6C41.2,7,39.77,6.38,38.19,6.32c-2.87-.12-5.74,0-8.86,0l-1.48,6.55H20.67c-.89-1.13.66-2.29.1-3.62-1.32.9-1.21,2.68-2.36,3.66H11L17.37,0C25.25.22,33-.32,40.72.35c3.7.32,6.68,1.77,8,5.44s.17,7.06-2.54,9.85c-.72.74-1.54,1.38-2.31,2.06a23.67,23.67,0,0,1-13,3C23,20.48,15.21,20.63,7.4,20.64Z"/></g></g></svg>