<svg width="100" height="100" viewBox="0 0 100 100" fill="none" xmlns="http://www.w3.org/2000/svg">
<g filter="url(#filter0_d_4690_5451)">
<rect x="10" y="2" width="80" height="80" rx="8" fill="#009FDE"/>
</g>
<path d="M66.4844 23.25H33.5156C31.5771 23.25 30 24.8271 30 26.7656V50.2031C30 52.1416 31.5771 53.7188 33.5156 53.7188H43.6865L42.124 58.4062H38.2812C37.634 58.4062 37.1094 58.9308 37.1094 59.5781C37.1094 60.2254 37.634 60.75 38.2812 60.75H61.7188C62.366 60.75 62.8906 60.2254 62.8906 59.5781C62.8906 58.9308 62.366 58.4062 61.7188 58.4062H57.876L56.3135 53.7188H66.4844C68.4229 53.7188 70 52.1416 70 50.2031V26.7656C70 24.8271 68.4229 23.25 66.4844 23.25ZM44.5947 58.4062L46.1572 53.7188H53.8428L55.4053 58.4062H44.5947ZM67.6562 50.2031C67.6562 50.8492 67.1304 51.375 66.4844 51.375C63.0795 51.375 36.9559 51.375 33.5156 51.375C32.8696 51.375 32.3438 50.8492 32.3438 50.2031V49.0312H67.6562V50.2031ZM42.7795 39.9523L41.7136 38.8866L43.3707 37.2292L44.4366 38.2952C44.8145 38.673 45.4001 38.7474 45.8606 38.4758C46.5192 38.0876 47.2223 37.795 47.9501 37.6064C48.4671 37.4727 48.8281 37.0061 48.8281 36.472V34.9688H51.1719V36.472C51.1719 37.0061 51.5329 37.4727 52.0499 37.6064C52.7774 37.795 53.4805 38.0876 54.1391 38.4761C54.5996 38.7474 55.1852 38.673 55.563 38.2952L56.629 37.2292L58.2864 38.8866L57.2205 39.9526C56.8427 40.3304 56.7682 40.916 57.0398 41.3762C57.4283 42.0351 57.7206 42.7382 57.9092 43.4658C58.0429 43.9827 58.5095 44.3438 59.0436 44.3438H60.5469V46.6875H55.741C55.8191 46.3036 55.8594 45.9108 55.8594 45.5156C55.8594 42.2847 53.2309 39.6562 50 39.6562C46.7691 39.6562 44.1406 42.2847 44.1406 45.5156C44.1406 45.9108 44.1809 46.3036 44.259 46.6875H39.4531V44.3438H40.9564C41.4905 44.3438 41.9571 43.9827 42.0911 43.4658C42.2794 42.7382 42.572 42.0351 42.9602 41.3762C43.2315 40.916 43.1573 40.3304 42.7795 39.9523ZM53.5156 45.5156C53.5156 45.9169 53.446 46.3134 53.3142 46.6875H46.6858C46.554 46.3134 46.4844 45.9169 46.4844 45.5156C46.4844 43.5771 48.0615 42 50 42C51.9385 42 53.5156 43.5771 53.5156 45.5156ZM67.6562 46.6875H62.8906V43.1719C62.8906 42.5246 62.366 42 61.7188 42H59.9084C59.787 41.6594 59.6475 41.3246 59.4907 40.9966L60.7724 39.7151C61.2299 39.2574 61.2299 38.5155 60.7721 38.0577L57.4576 34.7432C57.2379 34.5235 56.9397 34.4002 56.629 34.4002C56.3184 34.4002 56.0202 34.5235 55.8005 34.7432L54.519 36.025C54.191 35.8681 53.8562 35.7286 53.5156 35.6075V33.7969C53.5156 33.1496 52.991 32.625 52.3438 32.625H47.6562C47.009 32.625 46.4844 33.1496 46.4844 33.7969V35.6075C46.1438 35.7286 45.809 35.8681 45.481 36.025L44.1995 34.7432C43.9798 34.5235 43.6816 34.4002 43.371 34.4002C43.06 34.4002 42.7621 34.5235 42.5421 34.7432L39.2279 38.0577C38.7701 38.5155 38.7701 39.2574 39.2279 39.7151L40.5093 40.9969C40.3525 41.3246 40.2133 41.6594 40.0919 42H38.2812C37.634 42 37.1094 42.5249 37.1094 43.1719V46.6875H32.3438V26.7656C32.3438 26.1196 32.8696 25.5938 33.5156 25.5938H66.4844C67.1304 25.5938 67.6562 26.1196 67.6562 26.7656V46.6875Z" fill="white"/>
<path d="M61.7188 27.9375C59.7803 27.9375 58.2031 29.5146 58.2031 31.4531C58.2031 33.3916 59.7803 34.9688 61.7188 34.9688C63.6572 34.9688 65.2344 33.3916 65.2344 31.4531C65.2344 29.5146 63.6572 27.9375 61.7188 27.9375ZM61.7188 32.625C61.0727 32.625 60.5469 32.0992 60.5469 31.4531C60.5469 30.8071 61.0727 30.2812 61.7188 30.2812C62.3648 30.2812 62.8906 30.8071 62.8906 31.4531C62.8906 32.0992 62.3648 32.625 61.7188 32.625Z" fill="white"/>
<defs>
<filter id="filter0_d_4690_5451" x="0" y="0" width="100" height="100" filterUnits="userSpaceOnUse" color-interpolation-filters="sRGB">
<feFlood flood-opacity="0" result="BackgroundImageFix"/>
<feColorMatrix in="SourceAlpha" type="matrix" values="0 0 0 0 0 0 0 0 0 0 0 0 0 0 0 0 0 0 127 0" result="hardAlpha"/>
<feMorphology radius="8" operator="erode" in="SourceAlpha" result="effect1_dropShadow_4690_5451"/>
<feOffset dy="8"/>
<feGaussianBlur stdDeviation="9"/>
<feColorMatrix type="matrix" values="0 0 0 0 0.388235 0 0 0 0 0.4 0 0 0 0 0.945098 0 0 0 0.9 0"/>
<feBlend mode="normal" in2="BackgroundImageFix" result="effect1_dropShadow_4690_5451"/>
<feBlend mode="normal" in="SourceGraphic" in2="effect1_dropShadow_4690_5451" result="shape"/>
</filter>
</defs>
</svg>
