<svg width="100" height="100" viewBox="0 0 100 100" fill="none" xmlns="http://www.w3.org/2000/svg">
<g filter="url(#filter0_d_4577_5054)">
<rect x="10" y="1.99976" width="80" height="80" rx="8" fill="#009FDE"/>
</g>
<g clip-path="url(#clip0_4577_5054)">
<path d="M65.6527 26.3775C59.7 20.4363 50.014 20.4363 44.0612 26.3775C38.9655 31.4633 38.2326 39.2785 41.8606 45.1504L31.0692 55.9204C29.6957 57.2916 29.6957 59.5224 31.0692 60.8936C32.4427 62.2644 34.6783 62.2644 36.0518 60.8936L41.0344 55.9207C41.0344 55.9207 41.0344 55.9204 41.0347 55.9204L46.8431 50.1233C52.7427 53.7543 60.5693 53.0002 65.6524 47.9269C71.6055 41.9857 71.6055 32.3187 65.6527 26.3775ZM34.3911 59.2358C33.9334 59.693 33.1882 59.693 32.7302 59.2358C32.2724 58.7787 32.2724 58.0353 32.7302 57.5781L33.5607 56.7493L35.2216 58.407L34.3911 59.2358ZM36.8823 56.7493L35.2216 55.0915L36.8823 53.4341L38.5432 55.0915L36.8823 56.7493ZM40.2042 53.4341L38.5432 51.7764L43.2622 47.0666C43.5157 47.3611 43.7817 47.6483 44.0612 47.9269C44.3407 48.2059 44.6281 48.4717 44.9232 48.7243L40.2042 53.4341ZM63.9918 46.2695C58.9548 51.2964 50.7592 51.2964 45.7219 46.2695C40.6852 41.2423 40.6852 33.0624 45.7219 28.0352C50.7589 23.0081 58.9545 23.0078 63.9918 28.0352C69.0288 33.0624 69.0288 41.2423 63.9918 46.2695Z" fill="white"/>
<path d="M62.3308 29.6923C58.206 25.5752 51.5083 25.5749 47.3828 29.6923C43.258 33.8092 43.2577 40.4937 47.3828 44.6112C51.508 48.728 58.2057 48.7283 62.3308 44.6112C66.456 40.494 66.456 33.8095 62.3308 29.6923ZM60.6699 42.9535C57.4645 46.1526 52.2492 46.1526 49.0438 42.9535C45.8384 39.7543 45.8384 34.5489 49.0438 31.3501C52.2492 28.1509 57.4645 28.1506 60.6699 31.3501C63.8753 34.5489 63.8753 39.7543 60.6699 42.9535Z" fill="white"/>
<path d="M59.8542 33.9856C59.2741 33.6963 58.5687 33.9309 58.2785 34.5099L56.9802 37.1017L55.6819 34.5099C55.4828 34.1128 55.0762 33.862 54.6313 33.862C54.1864 33.862 53.78 34.1128 53.5809 34.5099L52.2826 37.1017L50.984 34.5099C50.6941 33.9309 49.9884 33.6963 49.4084 33.9856C48.8283 34.2752 48.5932 34.9792 48.8834 35.5585L51.232 40.2469C51.4311 40.6439 51.8377 40.8948 52.2826 40.8948C52.7275 40.8948 53.1339 40.6439 53.333 40.2469L54.6316 37.655L55.9299 40.2469C56.1286 40.6439 56.5353 40.8948 56.9802 40.8948C57.4251 40.8948 57.8318 40.6439 58.0309 40.2469L60.3795 35.5585C60.6697 34.9792 60.4345 34.2752 59.8542 33.9856Z" fill="white"/>
</g>
<defs>
<filter id="filter0_d_4577_5054" x="0" y="-0.000244141" width="100" height="100" filterUnits="userSpaceOnUse" color-interpolation-filters="sRGB">
<feFlood flood-opacity="0" result="BackgroundImageFix"/>
<feColorMatrix in="SourceAlpha" type="matrix" values="0 0 0 0 0 0 0 0 0 0 0 0 0 0 0 0 0 0 127 0" result="hardAlpha"/>
<feMorphology radius="8" operator="erode" in="SourceAlpha" result="effect1_dropShadow_4577_5054"/>
<feOffset dy="8"/>
<feGaussianBlur stdDeviation="9"/>
<feColorMatrix type="matrix" values="0 0 0 0 0.388235 0 0 0 0 0.4 0 0 0 0 0.945098 0 0 0 0.9 0"/>
<feBlend mode="normal" in2="BackgroundImageFix" result="effect1_dropShadow_4577_5054"/>
<feBlend mode="normal" in="SourceGraphic" in2="effect1_dropShadow_4577_5054" result="shape"/>
</filter>
<clipPath id="clip0_4577_5054">
<rect width="40" height="40" fill="white" transform="translate(30 21.9998)"/>
</clipPath>
</defs>
</svg>
