<svg width="100" height="100" viewBox="0 0 100 100" fill="none" xmlns="http://www.w3.org/2000/svg">
<g filter="url(#filter0_d_5439_5746)">
<rect x="10" y="2" width="80" height="80" rx="8" fill="#009FDE"/>
</g>
<path d="M69.456 56.5885L61.6664 48.7988C61.3148 48.4472 60.8382 48.2519 60.3382 48.2519H59.0646C61.221 45.4939 62.5024 42.0249 62.5024 38.2512C62.5024 29.274 55.2284 22 46.2512 22C37.274 22 30 29.274 30 38.2512C30 47.2284 37.274 54.5024 46.2512 54.5024C50.0249 54.5024 53.4939 53.221 56.2519 51.0646V52.3382C56.2519 52.8382 56.4472 53.3148 56.7988 53.6664L64.5885 61.456C65.3229 62.1904 66.5105 62.1904 67.2371 61.456L69.4482 59.2449C70.1826 58.5105 70.1826 57.3229 69.456 56.5885ZM46.2512 48.2519C40.7273 48.2519 36.2505 43.7828 36.2505 38.2512C36.2505 32.7273 40.7195 28.2505 46.2512 28.2505C51.775 28.2505 56.2519 32.7195 56.2519 38.2512C56.2519 43.775 51.7828 48.2519 46.2512 48.2519Z" fill="white"/>
<defs>
<filter id="filter0_d_5439_5746" x="0" y="0" width="100" height="100" filterUnits="userSpaceOnUse" color-interpolation-filters="sRGB">
<feFlood flood-opacity="0" result="BackgroundImageFix"/>
<feColorMatrix in="SourceAlpha" type="matrix" values="0 0 0 0 0 0 0 0 0 0 0 0 0 0 0 0 0 0 127 0" result="hardAlpha"/>
<feMorphology radius="8" operator="erode" in="SourceAlpha" result="effect1_dropShadow_5439_5746"/>
<feOffset dy="8"/>
<feGaussianBlur stdDeviation="9"/>
<feColorMatrix type="matrix" values="0 0 0 0 0.388235 0 0 0 0 0.4 0 0 0 0 0.945098 0 0 0 0.9 0"/>
<feBlend mode="normal" in2="BackgroundImageFix" result="effect1_dropShadow_5439_5746"/>
<feBlend mode="normal" in="SourceGraphic" in2="effect1_dropShadow_5439_5746" result="shape"/>
</filter>
</defs>
</svg>
