<svg width="100" height="100" viewBox="0 0 100 100" fill="none" xmlns="http://www.w3.org/2000/svg">
<g filter="url(#filter0_d_4690_5406)">
<rect x="10.0001" y="1.99976" width="80" height="80" rx="8" fill="#009FDE"/>
</g>
<path d="M64.0001 58.5V59.5H65.0001H66.5001V60H33.5001V59.5H35.0001H36.0001V58.5V22.875C36.0001 22.3917 36.3918 22 36.8751 22H63.1251C63.6083 22 64.0001 22.3917 64.0001 22.875V58.5ZM52.5001 59.5H53.5001V58.5V51.9375C53.5001 50.8675 52.6326 50 51.5626 50H48.4376C47.3675 50 46.5001 50.8675 46.5001 51.9375V58.5V59.5H47.5001H52.5001ZM43.4376 25C42.3675 25 41.5001 25.8675 41.5001 26.9375V30.0625C41.5001 31.1325 42.3675 32 43.4376 32H46.5626C47.6326 32 48.5001 31.1325 48.5001 30.0625V26.9375C48.5001 25.8675 47.6326 25 46.5626 25H43.4376ZM43.4376 32.5C42.3675 32.5 41.5001 33.3675 41.5001 34.4375V37.5625C41.5001 38.6325 42.3675 39.5 43.4376 39.5H46.5626C47.6326 39.5 48.5001 38.6325 48.5001 37.5625V34.4375C48.5001 33.3675 47.6326 32.5 46.5626 32.5H43.4376ZM43.4376 47H46.5626C47.6326 47 48.5001 46.1325 48.5001 45.0625V41.9375C48.5001 40.8675 47.6326 40 46.5626 40H43.4376C42.3675 40 41.5001 40.8675 41.5001 41.9375V45.0625C41.5001 46.1325 42.3675 47 43.4376 47ZM56.5626 47C57.6326 47 58.5001 46.1325 58.5001 45.0625V41.9375C58.5001 40.8675 57.6326 40 56.5626 40H53.4376C52.3675 40 51.5001 40.8675 51.5001 41.9375V45.0625C51.5001 46.1325 52.3675 47 53.4376 47H56.5626ZM56.5626 39.5C57.6326 39.5 58.5001 38.6325 58.5001 37.5625V34.4375C58.5001 33.3675 57.6326 32.5 56.5626 32.5H53.4376C52.3675 32.5 51.5001 33.3675 51.5001 34.4375V37.5625C51.5001 38.6325 52.3675 39.5 53.4376 39.5H56.5626ZM56.5626 32C57.6326 32 58.5001 31.1325 58.5001 30.0625V26.9375C58.5001 25.8675 57.6326 25 56.5626 25H53.4376C52.3675 25 51.5001 25.8675 51.5001 26.9375V30.0625C51.5001 31.1325 52.3675 32 53.4376 32H56.5626Z" fill="#009FDE" stroke="white" stroke-width="2"/>
<defs>
<filter id="filter0_d_4690_5406" x="6.10352e-05" y="-0.000244141" width="100" height="100" filterUnits="userSpaceOnUse" color-interpolation-filters="sRGB">
<feFlood flood-opacity="0" result="BackgroundImageFix"/>
<feColorMatrix in="SourceAlpha" type="matrix" values="0 0 0 0 0 0 0 0 0 0 0 0 0 0 0 0 0 0 127 0" result="hardAlpha"/>
<feMorphology radius="8" operator="erode" in="SourceAlpha" result="effect1_dropShadow_4690_5406"/>
<feOffset dy="8"/>
<feGaussianBlur stdDeviation="9"/>
<feColorMatrix type="matrix" values="0 0 0 0 0.388235 0 0 0 0 0.4 0 0 0 0 0.945098 0 0 0 0.9 0"/>
<feBlend mode="normal" in2="BackgroundImageFix" result="effect1_dropShadow_4690_5406"/>
<feBlend mode="normal" in="SourceGraphic" in2="effect1_dropShadow_4690_5406" result="shape"/>
</filter>
</defs>
</svg>
