<svg width="100" height="100" viewBox="0 0 100 100" fill="none" xmlns="http://www.w3.org/2000/svg">
<g filter="url(#filter0_d_5158_3814)">
<rect x="10" y="2" width="80" height="80" rx="8" fill="#009FDE"/>
</g>
<g clip-path="url(#clip0_5158_3814)">
<path d="M52.5 31.625V21H36.875C35.8359 21 35 21.8359 35 22.875V59.125C35 60.1641 35.8359 61 36.875 61H63.125C64.1641 61 65 60.1641 65 59.125V33.5H54.375C53.3438 33.5 52.5 32.6562 52.5 31.625ZM65 30.5234V31H55V21H55.4766C55.9766 21 56.4531 21.1953 56.8047 21.5469L64.4531 29.2031C64.8047 29.5547 65 30.0312 65 30.5234Z" fill="white"/>
</g>
<defs>
<filter id="filter0_d_5158_3814" x="0" y="0" width="100" height="100" filterUnits="userSpaceOnUse" color-interpolation-filters="sRGB">
<feFlood flood-opacity="0" result="BackgroundImageFix"/>
<feColorMatrix in="SourceAlpha" type="matrix" values="0 0 0 0 0 0 0 0 0 0 0 0 0 0 0 0 0 0 127 0" result="hardAlpha"/>
<feMorphology radius="8" operator="erode" in="SourceAlpha" result="effect1_dropShadow_5158_3814"/>
<feOffset dy="8"/>
<feGaussianBlur stdDeviation="9"/>
<feColorMatrix type="matrix" values="0 0 0 0 0.388235 0 0 0 0 0.4 0 0 0 0 0.945098 0 0 0 0.9 0"/>
<feBlend mode="normal" in2="BackgroundImageFix" result="effect1_dropShadow_5158_3814"/>
<feBlend mode="normal" in="SourceGraphic" in2="effect1_dropShadow_5158_3814" result="shape"/>
</filter>
<clipPath id="clip0_5158_3814">
<rect width="40" height="40" fill="white" transform="translate(30 21.0002)"/>
</clipPath>
</defs>
</svg>
