<svg width="100" height="100" viewBox="0 0 100 100" fill="none" xmlns="http://www.w3.org/2000/svg">
<g filter="url(#filter0_d_5158_3754)">
<rect x="10" y="2" width="80" height="80" rx="8" fill="#009FDE"/>
</g>
<g clip-path="url(#clip0_5158_3754)">
<path d="M33 57.25C33 59.3203 34.6797 61 36.75 61H64.25C66.3203 61 68 59.3203 68 57.25V36H33V57.25ZM58 41.9375C58 41.4219 58.4219 41 58.9375 41H62.0625C62.5781 41 63 41.4219 63 41.9375V45.0625C63 45.5781 62.5781 46 62.0625 46H58.9375C58.4219 46 58 45.5781 58 45.0625V41.9375ZM58 51.9375C58 51.4219 58.4219 51 58.9375 51H62.0625C62.5781 51 63 51.4219 63 51.9375V55.0625C63 55.5781 62.5781 56 62.0625 56H58.9375C58.4219 56 58 55.5781 58 55.0625V51.9375ZM48 41.9375C48 41.4219 48.4219 41 48.9375 41H52.0625C52.5781 41 53 41.4219 53 41.9375V45.0625C53 45.5781 52.5781 46 52.0625 46H48.9375C48.4219 46 48 45.5781 48 45.0625V41.9375ZM48 51.9375C48 51.4219 48.4219 51 48.9375 51H52.0625C52.5781 51 53 51.4219 53 51.9375V55.0625C53 55.5781 52.5781 56 52.0625 56H48.9375C48.4219 56 48 55.5781 48 55.0625V51.9375ZM38 41.9375C38 41.4219 38.4219 41 38.9375 41H42.0625C42.5781 41 43 41.4219 43 41.9375V45.0625C43 45.5781 42.5781 46 42.0625 46H38.9375C38.4219 46 38 45.5781 38 45.0625V41.9375ZM38 51.9375C38 51.4219 38.4219 51 38.9375 51H42.0625C42.5781 51 43 51.4219 43 51.9375V55.0625C43 55.5781 42.5781 56 42.0625 56H38.9375C38.4219 56 38 55.5781 38 55.0625V51.9375ZM64.25 26H60.5V22.25C60.5 21.5625 59.9375 21 59.25 21H56.75C56.0625 21 55.5 21.5625 55.5 22.25V26H45.5V22.25C45.5 21.5625 44.9375 21 44.25 21H41.75C41.0625 21 40.5 21.5625 40.5 22.25V26H36.75C34.6797 26 33 27.6797 33 29.75V33.5H68V29.75C68 27.6797 66.3203 26 64.25 26Z" fill="white"/>
</g>
<defs>
<filter id="filter0_d_5158_3754" x="0" y="0" width="100" height="100" filterUnits="userSpaceOnUse" color-interpolation-filters="sRGB">
<feFlood flood-opacity="0" result="BackgroundImageFix"/>
<feColorMatrix in="SourceAlpha" type="matrix" values="0 0 0 0 0 0 0 0 0 0 0 0 0 0 0 0 0 0 127 0" result="hardAlpha"/>
<feMorphology radius="8" operator="erode" in="SourceAlpha" result="effect1_dropShadow_5158_3754"/>
<feOffset dy="8"/>
<feGaussianBlur stdDeviation="9"/>
<feColorMatrix type="matrix" values="0 0 0 0 0.388235 0 0 0 0 0.4 0 0 0 0 0.945098 0 0 0 0.9 0"/>
<feBlend mode="normal" in2="BackgroundImageFix" result="effect1_dropShadow_5158_3754"/>
<feBlend mode="normal" in="SourceGraphic" in2="effect1_dropShadow_5158_3754" result="shape"/>
</filter>
<clipPath id="clip0_5158_3754">
<rect width="40" height="40" fill="white" transform="translate(30 21.0002)"/>
</clipPath>
</defs>
</svg>
