<svg width="196" height="80" viewBox="0 0 196 80" fill="none" xmlns="http://www.w3.org/2000/svg">
<path d="M50.419 38.371C50.04 38.7523 49.7498 39.2125 49.569 39.7187C49.3882 40.225 49.3213 40.7649 49.373 41.3L49.355 41.282C49.4082 41.9119 49.3232 42.5457 49.1061 43.1394C48.889 43.733 48.545 44.2721 48.0981 44.7191C47.6511 45.166 47.112 45.5101 46.5183 45.7271C45.9247 45.9442 45.2908 46.0292 44.661 45.976L44.679 45.994C43.9256 45.9239 43.1689 46.0878 42.512 46.4635C41.8552 46.8392 41.3302 47.4083 41.0087 48.0933C40.6872 48.7783 40.5847 49.5457 40.7153 50.2911C40.846 51.0364 41.2033 51.7233 41.7386 52.2581C42.2739 52.7929 42.9611 53.1496 43.7065 53.2795C44.452 53.4095 45.2193 53.3063 45.904 52.9842C46.5887 52.662 47.1573 52.1366 47.5324 51.4794C47.9075 50.8222 48.0708 50.0654 48 49.312L48.019 49.33C47.9658 48.7002 48.0507 48.0663 48.2678 47.4726C48.4849 46.879 48.829 46.3399 49.2759 45.8929C49.7229 45.446 50.262 45.1019 50.8556 44.8849C51.4493 44.6678 52.0831 44.5828 52.713 44.636L52.694 44.618C53.3094 44.6733 53.9289 44.5724 54.495 44.3246C55.061 44.0768 55.5554 43.6901 55.9322 43.2004C56.309 42.7107 56.5562 42.1337 56.6506 41.5231C56.7451 40.9124 56.6839 40.2878 56.4727 39.707C56.2615 39.1263 55.9071 38.6083 55.4424 38.201C54.9777 37.7937 54.4177 37.5103 53.8143 37.3771C53.2109 37.2439 52.5836 37.2651 51.9906 37.4388C51.3976 37.6126 50.8581 37.9332 50.422 38.371H50.419Z" fill="#9397AD"/>
<path d="M43.042 43.636L43.023 43.618C43.5583 43.6719 44.0989 43.6062 44.6058 43.4256C45.1126 43.245 45.573 42.9541 45.9536 42.5738C46.3341 42.1935 46.6255 41.7333 46.8064 41.2266C46.9874 40.7199 47.0535 40.1794 47 39.644L47.019 39.662C46.9658 39.0321 47.0508 38.3983 47.2678 37.8046C47.4849 37.211 47.829 36.6719 48.2759 36.2249C48.7229 35.778 49.262 35.4339 49.8556 35.2169C50.4493 34.9998 51.0831 34.9148 51.713 34.968L51.694 34.95C52.4475 35.0208 53.2044 34.8574 53.8616 34.4821C54.5189 34.1068 55.0443 33.538 55.3663 32.8531C55.6883 32.1682 55.7912 31.4007 55.661 30.6552C55.5308 29.9097 55.1738 29.2225 54.6386 28.6874C54.1035 28.1522 53.4163 27.7952 52.6708 27.665C51.9253 27.5347 51.1578 27.6377 50.4729 27.9597C49.788 28.2817 49.2192 28.8071 48.8439 29.4643C48.4686 30.1215 48.3052 30.8785 48.376 31.632L48.358 31.613C48.4113 32.2429 48.3265 32.8768 48.1095 33.4705C47.8925 34.0643 47.5484 34.6035 47.1015 35.0505C46.6545 35.4974 46.1153 35.8415 45.5216 36.0585C44.9278 36.2755 44.2939 36.3603 43.664 36.307L43.682 36.326C43.1467 36.2721 42.606 36.3378 42.0992 36.5184C41.5924 36.6989 41.132 36.9899 40.7514 37.3702C40.3708 37.7505 40.0795 38.2107 39.8985 38.7174C39.7176 39.2241 39.6515 39.7646 39.705 40.3L39.687 40.282C39.74 40.9118 39.6549 41.5456 39.4378 42.1392C39.2206 42.7327 38.8766 43.2718 38.4297 43.7187C37.9827 44.1656 37.4437 44.5096 36.8501 44.7268C36.2566 44.9439 35.6228 45.029 34.993 44.976L35.011 44.994C34.2575 44.9232 33.5005 45.0866 32.8433 45.4619C32.1861 45.8372 31.6607 46.406 31.3387 47.0909C31.0166 47.7758 30.9137 48.5433 31.0439 49.2888C31.1742 50.0343 31.5312 50.7215 32.0663 51.2566C32.6015 51.7918 33.2887 52.1488 34.0342 52.279C34.7797 52.4092 35.5472 52.3063 36.2321 51.9843C36.9169 51.6623 37.4858 51.1369 37.8611 50.4797C38.2364 49.8224 38.3998 49.0655 38.329 48.312L38.348 48.33C38.2948 47.7001 38.3798 47.0663 38.5969 46.4726C38.8139 45.879 39.158 45.3399 39.6049 44.8929C40.0519 44.446 40.591 44.1019 41.1846 43.8849C41.7783 43.6678 42.4121 43.5828 43.042 43.636Z" fill="#9397AD"/>
<path d="M36.34 41.6289C36.719 41.2477 37.0092 40.7875 37.1899 40.2812C37.3705 39.7749 37.4371 39.2349 37.385 38.6999L37.404 38.7179C37.3508 38.0879 37.4358 37.4538 37.653 36.86C37.8702 36.2662 38.2144 35.727 38.6616 35.28C39.1088 34.8331 39.6481 34.4891 40.242 34.2721C40.8359 34.0552 41.47 33.9705 42.1 34.0239L42.081 34.0059C42.8342 34.0765 43.5909 33.913 44.2478 33.5378C44.9047 33.1625 45.4298 32.5938 45.7517 31.9092C46.0735 31.2245 46.1763 30.4573 46.0461 29.712C45.9159 28.9668 45.5589 28.2799 45.024 27.7449C44.4891 27.21 43.8021 26.8531 43.0569 26.7229C42.3117 26.5926 41.5444 26.6954 40.8598 27.0173C40.1751 27.3391 39.6064 27.8643 39.2312 28.5212C38.8559 29.1781 38.6924 29.9347 38.763 30.6879L38.745 30.6699C38.7982 31.2998 38.7132 31.9337 38.4961 32.5273C38.279 33.1209 37.935 33.66 37.4881 34.107C37.0411 34.554 36.502 34.898 35.9084 35.115C35.3147 35.3321 34.6809 35.4171 34.051 35.3639L34.069 35.3819C33.4536 35.3267 32.8342 35.4278 32.2682 35.6757C31.7022 35.9236 31.208 36.3104 30.8313 36.8002C30.4546 37.2899 30.2076 37.8669 30.1132 38.4775C30.0188 39.0882 30.0801 39.7128 30.2914 40.2934C30.5027 40.8741 30.8571 41.392 31.3218 41.7992C31.7865 42.2065 32.3465 42.4898 32.9499 42.623C33.5533 42.7561 34.1805 42.7348 34.7735 42.5611C35.3665 42.3873 35.906 42.0667 36.342 41.6289H36.34Z" fill="#9397AD"/>
<path d="M67.317 31.655H70.287V46.108H67.317V31.655Z" fill="#9397AD"/>
<path d="M71.969 41.1591C71.9649 40.1205 72.2691 39.1039 72.8431 38.2383C73.4171 37.3727 74.2351 36.6969 75.1935 36.2966C76.1519 35.8962 77.2075 35.7893 78.2267 35.9894C79.2459 36.1895 80.1828 36.6875 80.9187 37.4205C81.6546 38.1534 82.1564 39.0883 82.3606 40.1067C82.5648 41.1251 82.4621 42.1812 82.0656 43.1412C81.6691 44.1011 80.9966 44.9219 80.1333 45.4993C79.2699 46.0768 78.2547 46.3851 77.216 46.3851C76.5266 46.393 75.8425 46.2633 75.2037 46.0037C74.5649 45.7441 73.9843 45.3598 73.4958 44.8733C73.0072 44.3867 72.6206 43.8076 72.3585 43.1699C72.0963 42.5322 71.9639 41.8486 71.969 41.1591ZM79.493 41.1591C79.4806 40.7114 79.3365 40.2773 79.0788 39.911C78.821 39.5448 78.461 39.2626 78.0438 39.0999C77.6265 38.9371 77.1706 38.9009 76.7329 38.9959C76.2952 39.0909 75.8952 39.3127 75.5829 39.6338C75.2707 39.9548 75.0599 40.3608 74.9772 40.801C74.8944 41.2411 74.9431 41.6959 75.1174 42.1085C75.2917 42.5211 75.5837 42.8731 75.9569 43.1206C76.3302 43.3681 76.7682 43.5001 77.216 43.5001C77.5227 43.5083 77.8278 43.4528 78.1121 43.3372C78.3963 43.2216 78.6535 43.0484 78.8674 42.8285C79.0813 42.6085 79.2474 42.3466 79.355 42.0593C79.4627 41.772 79.5097 41.4655 79.493 41.1591Z" fill="#9397AD"/>
<path d="M94.3 36.2091V45.6091C94.3 48.9351 91.706 50.3411 89.073 50.3411C88.146 50.4105 87.2177 50.2232 86.39 49.7999C85.5624 49.3765 84.8673 48.7334 84.381 47.9411L86.915 46.4761C87.1194 46.8891 87.4451 47.2298 87.8484 47.4527C88.2518 47.6755 88.7136 47.7699 89.172 47.7231C89.465 47.7637 89.7634 47.7379 90.0451 47.6476C90.3267 47.5573 90.5845 47.4048 90.7993 47.2015C91.0141 46.9981 91.1804 46.7491 91.286 46.4727C91.3915 46.1964 91.4335 45.8999 91.409 45.6051V44.7001C91.0612 45.1256 90.6186 45.4637 90.1165 45.6872C89.6144 45.9107 89.067 46.0134 88.518 45.9871C87.2118 45.9459 85.9729 45.3981 85.0635 44.4595C84.1541 43.521 83.6456 42.2654 83.6456 40.9586C83.6456 39.6518 84.1541 38.3962 85.0635 37.4577C85.9729 36.5191 87.2118 35.9713 88.518 35.9301C89.067 35.9038 89.6144 36.0065 90.1165 36.23C90.6186 36.4535 91.0612 36.7916 91.409 37.2171V36.2071L94.3 36.2091ZM91.41 40.9601C91.43 40.4815 91.3062 40.0078 91.0547 39.6001C90.8032 39.1923 90.4354 38.8692 89.9987 38.6723C89.562 38.4753 89.0764 38.4136 88.6043 38.495C88.1322 38.5764 87.6953 38.7972 87.3497 39.1291C87.0042 39.4609 86.7659 39.8885 86.6654 40.3569C86.565 40.8253 86.607 41.3131 86.7862 41.7574C86.9653 42.2017 87.2733 42.5823 87.6705 42.8501C88.0677 43.1179 88.536 43.2607 89.015 43.2601C89.3271 43.2819 89.6402 43.2381 89.9343 43.1315C90.2284 43.0249 90.4969 42.8578 90.7225 42.6412C90.9481 42.4245 91.1259 42.163 91.2443 41.8734C91.3627 41.5839 91.4192 41.2728 91.41 40.9601Z" fill="#9397AD"/>
<path d="M95.982 41.1591C95.9779 40.1205 96.282 39.1039 96.8561 38.2383C97.4301 37.3727 98.2481 36.6969 99.2065 36.2966C100.165 35.8962 101.221 35.7893 102.24 35.9894C103.259 36.1895 104.196 36.6875 104.932 37.4205C105.668 38.1534 106.169 39.0883 106.374 40.1067C106.578 41.1251 106.475 42.1812 106.079 43.1412C105.682 44.1011 105.01 44.9219 104.146 45.4993C103.283 46.0768 102.268 46.3851 101.229 46.3851C100.54 46.393 99.8554 46.2633 99.2167 46.0037C98.5779 45.7441 97.9973 45.3598 97.5088 44.8733C97.0202 44.3867 96.6336 43.8076 96.3715 43.1699C96.1093 42.5322 95.9769 41.8486 95.982 41.1591ZM103.506 41.1591C103.494 40.7114 103.35 40.2773 103.092 39.911C102.834 39.5448 102.474 39.2626 102.057 39.0999C101.64 38.9371 101.184 38.9009 100.746 38.9959C100.308 39.0909 99.9082 39.3127 99.5959 39.6338C99.2837 39.9548 99.0729 40.3608 98.9901 40.801C98.9073 41.2411 98.9561 41.6959 99.1304 42.1085C99.3047 42.5211 99.5967 42.8731 99.9699 43.1206C100.343 43.3681 100.781 43.5001 101.229 43.5001C101.536 43.5083 101.841 43.4528 102.125 43.3372C102.409 43.2216 102.667 43.0484 102.88 42.8285C103.094 42.6085 103.26 42.3466 103.368 42.0593C103.476 41.772 103.523 41.4655 103.506 41.1591Z" fill="#9397AD"/>
<path d="M107.861 33.5559C107.861 33.2035 107.966 32.8589 108.161 32.5659C108.357 32.2729 108.636 32.0444 108.961 31.9096C109.287 31.7747 109.645 31.7394 109.991 31.8082C110.336 31.8769 110.654 32.0466 110.903 32.2959C111.152 32.5451 111.322 32.8626 111.391 33.2083C111.46 33.5539 111.424 33.9122 111.289 34.2379C111.155 34.5635 110.926 34.8418 110.633 35.0376C110.34 35.2334 109.996 35.3379 109.643 35.3379C109.172 35.3332 108.721 35.144 108.388 34.8108C108.055 34.4776 107.866 34.0271 107.861 33.5559ZM108.161 36.2089H111.132V46.1089H108.157L108.161 36.2089Z" fill="#9397AD"/>
<path d="M123.956 41.159C123.99 41.8133 123.895 42.4679 123.675 43.0852C123.456 43.7025 123.116 44.2703 122.677 44.756C122.237 45.2416 121.705 45.6356 121.113 45.9152C120.52 46.1947 119.878 46.3544 119.224 46.385C118.674 46.415 118.123 46.3222 117.613 46.1133C117.103 45.9043 116.646 45.5845 116.275 45.177V50.068H113.305V36.209H116.275V37.139C116.646 36.7318 117.104 36.4122 117.614 36.2035C118.124 35.9947 118.674 35.902 119.224 35.932C119.879 35.9625 120.521 36.1221 121.113 36.4017C121.706 36.6813 122.238 37.0753 122.677 37.5611C123.117 38.0469 123.457 38.6149 123.676 39.2324C123.895 39.8498 123.991 40.5046 123.956 41.159ZM120.986 41.159C120.974 40.6957 120.826 40.2461 120.56 39.8664C120.295 39.4868 119.923 39.194 119.491 39.0248C119.06 38.8555 118.588 38.8172 118.135 38.9148C117.682 39.0123 117.268 39.2413 116.944 39.5731C116.62 39.905 116.402 40.3248 116.316 40.7803C116.23 41.2357 116.28 41.7063 116.46 42.1334C116.64 42.5605 116.942 42.9249 117.328 43.1812C117.714 43.4374 118.167 43.5741 118.631 43.574C118.949 43.5882 119.267 43.5349 119.563 43.4177C119.859 43.3006 120.127 43.1221 120.349 42.8941C120.572 42.666 120.743 42.3936 120.853 42.0946C120.963 41.7956 121.008 41.4767 120.986 41.159Z" fill="#9397AD"/>
<path d="M133.121 43.1381C133.121 45.4151 131.142 46.3851 129.004 46.3851C128.14 46.4633 127.273 46.2807 126.514 45.8606C125.755 45.4406 125.14 44.8026 124.747 44.0291L127.32 42.5641C127.424 42.9216 127.648 43.2327 127.953 43.4452C128.259 43.6578 128.629 43.7591 129 43.7321C129.712 43.7321 130.069 43.5141 130.069 43.1191C130.069 42.0291 125.198 42.6041 125.198 39.1791C125.198 37.0201 127.02 35.9321 129.079 35.9321C129.853 35.9076 130.619 36.0912 131.298 36.4637C131.977 36.8363 132.544 37.3841 132.939 38.0501L130.405 39.4161C130.294 39.1568 130.109 38.9359 129.873 38.781C129.637 38.6261 129.361 38.5441 129.079 38.5451C128.564 38.5451 128.247 38.7451 128.247 39.0991C128.251 40.2281 133.121 39.4751 133.121 43.1381Z" fill="#9397AD"/>
<path d="M143.97 36.209V46.109H141V45.178C140.657 45.5888 140.222 45.9125 139.73 46.1225C139.238 46.3325 138.704 46.4228 138.17 46.386C136.17 46.386 134.47 44.961 134.47 42.286V36.209H137.44V41.851C137.415 42.0868 137.442 42.3252 137.519 42.5495C137.595 42.7739 137.72 42.9789 137.884 43.1502C138.048 43.3215 138.247 43.455 138.468 43.5415C138.688 43.628 138.925 43.6654 139.162 43.651C140.251 43.651 141.003 43.018 141.003 41.612V36.212L143.97 36.209Z" fill="#9397AD"/>
<path d="M161 40.03V46.108H158.03V40.287C158.03 39.297 157.555 38.664 156.605 38.664C155.615 38.664 155.06 39.357 155.06 40.525V46.108H152.091V40.287C152.091 39.297 151.616 38.664 150.665 38.664C149.675 38.664 149.121 39.357 149.121 40.525V46.108H146.151V36.208H149.121V37.118C149.429 36.7143 149.833 36.3941 150.296 36.1868C150.76 35.9794 151.268 35.8915 151.774 35.931C152.282 35.9061 152.788 36.0134 153.243 36.2423C153.697 36.4711 154.084 36.8139 154.367 37.237C154.696 36.7943 155.132 36.4423 155.634 36.2139C156.136 35.9855 156.688 35.8882 157.238 35.931C159.511 35.932 161 37.555 161 40.03Z" fill="#9397AD"/>
<path d="M163.512 36.148C164.729 36.148 165.716 35.1612 165.716 33.944C165.716 32.7268 164.729 31.74 163.512 31.74C162.295 31.74 161.308 32.7268 161.308 33.944C161.308 35.1612 162.295 36.148 163.512 36.148Z" fill="#9397AD"/>
</svg>
