<svg width="196" height="80" viewBox="0 0 196 80" fill="none" xmlns="http://www.w3.org/2000/svg">
<path d="M72.87 34.0699H75.87V46.1999H72.87V34.0699ZM77.06 41.6199C77.06 38.6199 78.9 36.8299 81.74 36.8299C84.58 36.8299 86.42 38.6199 86.42 41.6199C86.42 44.6199 84.62 46.4199 81.74 46.4199C78.86 46.4199 77.06 44.6699 77.06 41.6199ZM83.41 41.6199C83.41 39.9699 82.76 38.9999 81.74 38.9999C80.72 38.9999 80.08 39.9999 80.08 41.6199C80.08 43.2399 80.71 44.2199 81.74 44.2199C82.77 44.2199 83.41 43.2999 83.41 41.6299V41.6199ZM87.55 46.7899H90.43C90.5671 47.0944 90.7988 47.3465 91.0907 47.5087C91.3826 47.6708 91.7191 47.7344 92.05 47.6899C93.19 47.6899 93.79 47.0699 93.79 46.1699V44.4899H93.73C93.491 45.0048 93.1031 45.4362 92.6165 45.7286C92.1299 46.0209 91.5668 46.1607 91 46.1299C88.81 46.1299 87.36 44.4599 87.36 41.5899C87.36 38.7199 88.74 36.9099 91.04 36.9099C91.6246 36.887 92.2022 37.0433 92.6955 37.3578C93.1888 37.6724 93.5742 38.1302 93.8 38.6699V36.9999H96.8V46.0999C96.8 48.2899 94.87 49.6499 92.02 49.6499C89.37 49.6499 87.72 48.4599 87.55 46.7999V46.7899ZM93.8 41.6099C93.8 40.1499 93.13 39.2299 92.07 39.2299C91.01 39.2299 90.36 40.1399 90.36 41.6099C90.36 43.0799 91 43.9099 92.07 43.9099C93.14 43.9099 93.8 43.0999 93.8 41.6199V41.6099ZM97.93 41.6099C97.93 38.6099 99.77 36.8199 102.61 36.8199C105.45 36.8199 107.3 38.6099 107.3 41.6099C107.3 44.6099 105.5 46.4099 102.61 46.4099C99.72 46.4099 97.93 44.6699 97.93 41.6199V41.6099ZM104.28 41.6099C104.28 39.9599 103.63 38.9899 102.61 38.9899C101.59 38.9899 101 39.9999 101 41.6299C101 43.2599 101.63 44.2299 102.65 44.2299C103.67 44.2299 104.28 43.2999 104.28 41.6299V41.6099ZM108.44 34.8199C108.432 34.517 108.514 34.2186 108.676 33.9625C108.838 33.7064 109.073 33.5042 109.35 33.3814C109.627 33.2587 109.934 33.2209 110.232 33.273C110.531 33.325 110.807 33.4646 111.026 33.6738C111.245 33.8831 111.397 34.1527 111.463 34.4485C111.529 34.7443 111.505 35.0529 111.395 35.3353C111.285 35.6176 111.094 35.861 110.846 36.0345C110.597 36.208 110.303 36.3039 110 36.3099C109.799 36.3237 109.598 36.2958 109.408 36.228C109.219 36.1602 109.045 36.054 108.899 35.9159C108.752 35.7779 108.636 35.611 108.557 35.4258C108.478 35.2407 108.438 35.0412 108.44 34.8399V34.8199ZM108.44 37.0199H111.44V46.1999H108.44V37.0199ZM122.33 41.6099C122.33 44.6099 121 46.3199 118.72 46.3199C118.135 46.3574 117.553 46.2145 117.052 45.9105C116.552 45.6064 116.156 45.1559 115.92 44.6199H115.86V49.1399H112.86V36.9999H115.86V38.6399H115.92C116.145 38.095 116.533 37.6328 117.031 37.3161C117.528 36.9994 118.111 36.8436 118.7 36.8699C121 36.9099 122.37 38.6299 122.37 41.6299L122.33 41.6099ZM119.33 41.6099C119.33 40.1499 118.66 39.2199 117.61 39.2199C116.56 39.2199 115.89 40.1599 115.88 41.6099C115.87 43.0599 116.56 43.9899 117.61 43.9899C118.66 43.9899 119.33 43.0799 119.33 41.6299V41.6099ZM127.48 36.8099C129.97 36.8099 131.48 37.9899 131.55 39.8799H128.82C128.82 39.2299 128.28 38.8199 127.45 38.8199C126.62 38.8199 126.25 39.1399 126.25 39.6099C126.25 40.0799 126.58 40.2299 127.25 40.3699L129.17 40.7599C131 41.1499 131.78 41.8899 131.78 43.2799C131.78 45.1799 130.05 46.3999 127.5 46.3999C124.95 46.3999 123.28 45.1799 123.15 43.3099H126.04C126.13 43.9899 126.67 44.3899 127.55 44.3899C128.43 44.3899 128.83 44.0999 128.83 43.6199C128.83 43.1399 128.55 43.0399 127.83 42.8899L126.1 42.5199C124.31 42.1499 123.37 41.1999 123.37 39.7999C123.39 37.9999 125 36.8299 127.48 36.8299V36.8099ZM141.79 46.1799H138.9V44.4699H138.84C138.681 45.044 138.331 45.5465 137.847 45.894C137.363 46.2414 136.775 46.4129 136.18 46.3799C135.724 46.4058 135.268 46.3336 134.843 46.1681C134.417 46.0026 134.032 45.7478 133.714 45.4207C133.395 45.0937 133.15 44.702 132.996 44.2723C132.842 43.8426 132.782 43.3848 132.82 42.9299V36.9999H135.82V42.2399C135.82 43.3299 136.38 43.9099 137.31 43.9099C137.528 43.9103 137.744 43.8642 137.943 43.7745C138.141 43.6848 138.319 43.5536 138.463 43.3898C138.606 43.2259 138.714 43.0332 138.777 42.8246C138.84 42.6159 138.859 42.3961 138.83 42.1799V36.9999H141.83L141.79 46.1799ZM143.24 36.9999H146.14V38.7699H146.2C146.359 38.2034 146.702 37.7056 147.174 37.3546C147.646 37.0036 148.222 36.819 148.81 36.8299C149.409 36.782 150.003 36.9611 150.476 37.3317C150.948 37.7023 151.264 38.2371 151.36 38.8299H151.42C151.601 38.2308 151.977 37.7092 152.488 37.3471C152.998 36.985 153.615 36.803 154.24 36.8299C154.648 36.8162 155.054 36.8885 155.432 37.0421C155.811 37.1956 156.152 37.4271 156.435 37.7213C156.718 38.0156 156.936 38.3661 157.075 38.75C157.213 39.1339 157.27 39.5428 157.24 39.9499V46.1999H154.24V40.7499C154.24 39.7499 153.79 39.2899 152.95 39.2899C152.763 39.2883 152.577 39.3269 152.406 39.4031C152.235 39.4793 152.082 39.5913 151.958 39.7316C151.834 39.8719 151.741 40.0371 151.686 40.2162C151.631 40.3954 151.616 40.5842 151.64 40.7699V46.1999H148.79V40.7099C148.79 39.7899 148.34 39.2899 147.52 39.2899C147.331 39.29 147.143 39.3302 146.971 39.4079C146.798 39.4857 146.643 39.5992 146.518 39.7409C146.392 39.8826 146.298 40.0494 146.241 40.2303C146.185 40.4111 146.167 40.6018 146.19 40.7899V46.1999H143.19L143.24 36.9999Z" fill="#9397AD"/>
<path d="M64.48 34.6199C63.9711 33.4563 63.2976 32.3718 62.48 31.3999C61.2715 29.9202 59.7633 28.7133 58.0547 27.8585C56.3461 27.0037 54.4758 26.5205 52.567 26.4406C50.6582 26.3606 48.7541 26.6859 46.98 27.3949C45.2059 28.1039 43.6021 29.1805 42.2742 30.554C40.9462 31.9275 39.9241 33.5666 39.2753 35.3636C38.6264 37.1605 38.3655 39.0745 38.5096 40.9795C38.6538 42.8846 39.1997 44.7375 40.1116 46.4163C41.0234 48.0952 42.2805 49.5619 43.8 50.7199C44.775 51.4778 45.8523 52.0939 47 52.5499C48.609 53.2093 50.3311 53.5489 52.07 53.5499C55.6594 53.542 59.0992 52.1112 61.6355 49.5712C64.1717 47.0312 65.5974 43.5893 65.6 39.9999C65.6026 38.1484 65.2213 36.3165 64.48 34.6199ZM52.06 29.1899C53.6216 29.1897 55.1643 29.531 56.58 30.1899C56.2348 30.3391 55.8718 30.4432 55.5 30.4999C54.2766 30.677 53.1433 31.245 52.2692 32.1191C51.3951 32.9932 50.8271 34.1265 50.65 35.3499C50.5723 36.036 50.2602 36.6743 49.7665 37.1571C49.2728 37.6399 48.6277 37.9375 47.94 37.9999C46.7166 38.177 45.5832 38.745 44.7092 39.6191C43.8351 40.4932 43.2671 41.6265 43.09 42.8499C43.03 43.5023 42.7517 44.1154 42.3 44.5899C41.5206 42.9432 41.1705 41.126 41.2823 39.3076C41.394 37.4892 41.9639 35.7286 42.939 34.1896C43.914 32.6507 45.2626 31.3834 46.8591 30.5057C48.4556 29.6281 50.2482 29.1685 52.07 29.1699L52.06 29.1899ZM43.79 46.9999C43.91 46.8899 44.03 46.7899 44.15 46.6699C45.0396 45.8074 45.6107 44.6688 45.77 43.4399C45.8346 42.7491 46.143 42.1039 46.64 41.6199C47.1183 41.1221 47.762 40.8162 48.45 40.7599C49.6734 40.5828 50.8067 40.0148 51.6808 39.1407C52.5549 38.2666 53.1229 37.1333 53.3 35.9099C53.3433 35.1874 53.6533 34.5067 54.17 33.9999C54.6601 33.5117 55.3099 33.217 56 33.1699C57.1239 33.0153 58.1721 32.5156 59 31.7399C59.9427 32.522 60.7413 33.4628 61.36 34.5199C61.322 34.5712 61.2784 34.6182 61.23 34.6599C60.7527 35.1621 60.1098 35.4747 59.42 35.5399C58.1953 35.7139 57.0603 36.2809 56.1856 37.1555C55.311 38.0302 54.744 39.1652 54.57 40.3899C54.4995 41.0783 54.1932 41.7212 53.703 42.2096C53.2127 42.6981 52.5687 43.002 51.88 43.0699C50.653 43.2456 49.5155 43.8125 48.6363 44.6862C47.7572 45.56 47.1833 46.694 47 47.9199C46.9462 48.4086 46.7783 48.8779 46.51 49.2899C45.484 48.6807 44.5651 47.9071 43.79 46.9999ZM52.06 50.8599C51.0453 50.861 50.0354 50.7196 49.06 50.4399C49.3937 49.8179 49.6106 49.14 49.7 48.4399C49.7701 47.753 50.075 47.1113 50.5632 46.6231C51.0514 46.1349 51.6931 45.83 52.38 45.7599C53.6052 45.5848 54.7408 45.0177 55.6169 44.1434C56.4929 43.2692 57.0624 42.1347 57.24 40.9099C57.3101 40.223 57.615 39.5813 58.1032 39.0931C58.5914 38.6049 59.2331 38.3 59.92 38.2299C60.842 38.11 61.7208 37.7667 62.48 37.2299C62.9016 38.8278 62.9515 40.501 62.626 42.1212C62.3005 43.7414 61.6081 45.2656 60.6021 46.5767C59.5961 47.8877 58.3032 48.951 56.8224 49.6848C55.3417 50.4186 53.7126 50.8035 52.06 50.8099V50.8599Z" fill="#9397AD"/>
</svg>
