<svg width="196" height="80" viewBox="0 0 196 80" fill="none" xmlns="http://www.w3.org/2000/svg">
<path d="M41.941 52.8251H67.591V27.175H41.941V52.8251ZM62.654 37.532H57.234V32.112H62.654V37.532ZM46.877 32.112H52.3V42.468H62.654V47.8881H46.877V32.112ZM84.294 27.175C81.7574 27.175 79.2778 27.9272 77.1688 29.3365C75.0597 30.7457 73.4159 32.7487 72.4452 35.0921C71.4745 37.4356 71.2206 40.0142 71.7154 42.502C72.2103 44.9898 73.4317 47.275 75.2253 49.0686C77.0189 50.8623 79.3041 52.0837 81.7919 52.5786C84.2798 53.0735 86.8584 52.8195 89.2019 51.8489C91.5454 50.8782 93.5483 49.2344 94.9576 47.1252C96.3668 45.0161 97.119 42.5365 97.119 40C97.115 36.5998 95.7625 33.3401 93.3582 30.9358C90.9539 28.5315 87.6942 27.179 84.294 27.175ZM84.294 47.8881C82.7339 47.8881 81.2088 47.4254 79.9116 46.5586C78.6145 45.6919 77.6034 44.46 77.0064 43.0186C76.4094 41.5773 76.2532 39.9913 76.5575 38.4611C76.8619 36.931 77.6132 35.5255 78.7163 34.4224C79.8195 33.3192 81.225 32.568 82.7551 32.2636C84.2852 31.9593 85.8712 32.1155 87.3126 32.7125C88.7539 33.3095 89.9859 34.3205 90.8526 35.6177C91.7194 36.9148 92.182 38.4399 92.182 40C92.1788 42.0911 91.3467 44.0956 89.8681 45.5742C88.3895 47.0528 86.385 47.8848 84.294 47.8881ZM143.013 27.175C140.476 27.1749 137.997 27.9269 135.887 29.336C133.778 30.7451 132.134 32.748 131.163 35.0914C130.193 37.4348 129.938 40.0136 130.433 42.5014C130.928 44.9893 132.149 47.2747 133.943 49.0683C135.737 50.862 138.022 52.0837 140.51 52.5786C142.997 53.0735 145.576 52.8195 147.92 51.8489C150.263 50.8783 152.266 49.2344 153.675 47.1253C155.085 45.0162 155.837 42.5366 155.837 40C155.833 36.6 154.481 33.3404 152.077 30.9361C149.673 28.5319 146.413 27.1793 143.013 27.175ZM143.013 47.8881C141.453 47.8883 139.928 47.4257 138.63 46.5591C137.333 45.6925 136.322 44.4606 135.725 43.0193C135.128 41.578 134.971 39.9919 135.275 38.4617C135.58 36.9316 136.331 35.526 137.434 34.4227C138.537 33.3195 139.943 32.5681 141.473 32.2637C143.003 31.9592 144.589 32.1154 146.03 32.7124C147.472 33.3094 148.704 34.3204 149.571 35.6176C150.437 36.9148 150.9 38.4399 150.9 40C150.897 42.0909 150.065 44.0952 148.586 45.5738C147.108 47.0524 145.104 47.8846 143.013 47.8881ZM113.653 27.175C111.116 27.175 108.637 27.9272 106.528 29.3365C104.419 30.7457 102.775 32.7487 101.804 35.0921C100.833 37.4356 100.58 40.0142 101.074 42.502C101.569 44.9898 102.791 47.275 104.584 49.0686C106.378 50.8623 108.663 52.0837 111.151 52.5786C113.639 53.0735 116.217 52.8195 118.561 51.8489C120.904 50.8782 122.907 49.2344 124.317 47.1252C125.726 45.0161 126.478 42.5365 126.478 40C126.474 36.5998 125.121 33.3401 122.717 30.9358C120.313 28.5315 117.053 27.179 113.653 27.175ZM113.653 47.8881C112.199 47.8888 110.774 47.4879 109.534 46.7295C108.294 45.9712 107.287 44.8852 106.626 43.591C105.964 42.2968 105.673 40.8448 105.784 39.3956C105.896 37.9463 106.405 36.556 107.257 35.3781C108.109 34.2003 109.269 33.2807 110.61 32.7208C111.952 32.1608 113.422 31.9825 114.858 32.2053C116.295 32.4281 117.641 33.0435 118.75 33.9835C119.859 34.9234 120.686 36.1515 121.141 37.532H113.653V42.468H121.141C120.62 44.0433 119.617 45.4148 118.272 46.3876C116.928 47.3605 115.312 47.8853 113.653 47.8881Z" fill="#009FDE"/>
</svg>
