<svg width="100" height="100" viewBox="0 0 100 100" fill="none" xmlns="http://www.w3.org/2000/svg">
<g filter="url(#filter0_d_4577_5067)">
<rect x="10" y="1.99976" width="80" height="80" rx="8" fill="#009FDE"/>
</g>
<path d="M66.4844 23.2498H33.5156C31.5771 23.2498 30 24.8269 30 26.7654V50.2029C30 52.1414 31.5771 53.7185 33.5156 53.7185H43.6865L42.124 58.406H38.2812C37.634 58.406 37.1094 58.9306 37.1094 59.5779C37.1094 60.2252 37.634 60.7498 38.2812 60.7498H61.7188C62.366 60.7498 62.8906 60.2252 62.8906 59.5779C62.8906 58.9306 62.366 58.406 61.7188 58.406H57.876L56.3135 53.7185H66.4844C68.4229 53.7185 70 52.1414 70 50.2029V26.7654C70 24.8269 68.4229 23.2498 66.4844 23.2498ZM44.5947 58.406L46.1572 53.7185H53.8428L55.4053 58.406H44.5947ZM67.6562 50.2029C67.6562 50.8489 67.1304 51.3748 66.4844 51.3748C63.0795 51.3748 36.9559 51.3748 33.5156 51.3748C32.8696 51.3748 32.3438 50.8489 32.3438 50.2029V49.031H67.6562V50.2029ZM42.7795 39.952L41.7136 38.8864L43.3707 37.2289L44.4366 38.2949C44.8145 38.6727 45.4001 38.7472 45.8606 38.4756C46.5192 38.0874 47.2223 37.7947 47.9501 37.6061C48.4671 37.4725 48.8281 37.0059 48.8281 36.4718V34.9685H51.1719V36.4718C51.1719 37.0059 51.5329 37.4725 52.0499 37.6061C52.7774 37.7947 53.4805 38.0874 54.1391 38.4759C54.5996 38.7472 55.1852 38.6727 55.563 38.2949L56.629 37.2289L58.2864 38.8864L57.2205 39.9523C56.8427 40.3301 56.7682 40.9158 57.0398 41.376C57.4283 42.0349 57.7206 42.738 57.9092 43.4655C58.0429 43.9825 58.5095 44.3435 59.0436 44.3435H60.5469V46.6873H55.741C55.8191 46.3033 55.8594 45.9106 55.8594 45.5154C55.8594 42.2845 53.2309 39.656 50 39.656C46.7691 39.656 44.1406 42.2845 44.1406 45.5154C44.1406 45.9106 44.1809 46.3033 44.259 46.6873H39.4531V44.3435H40.9564C41.4905 44.3435 41.9571 43.9825 42.0911 43.4655C42.2794 42.738 42.572 42.0349 42.9602 41.376C43.2315 40.9158 43.1573 40.3301 42.7795 39.952ZM53.5156 45.5154C53.5156 45.9167 53.446 46.3131 53.3142 46.6873H46.6858C46.554 46.3131 46.4844 45.9167 46.4844 45.5154C46.4844 43.5769 48.0615 41.9998 50 41.9998C51.9385 41.9998 53.5156 43.5769 53.5156 45.5154ZM67.6562 46.6873H62.8906V43.1716C62.8906 42.5244 62.366 41.9998 61.7188 41.9998H59.9084C59.787 41.6592 59.6475 41.3244 59.4907 40.9963L60.7724 39.7149C61.2299 39.2571 61.2299 38.5153 60.7721 38.0575L57.4576 34.743C57.2379 34.5233 56.9397 34.4 56.629 34.4C56.3184 34.4 56.0202 34.5233 55.8005 34.743L54.519 36.0247C54.191 35.8679 53.8562 35.7284 53.5156 35.6072V33.7966C53.5156 33.1494 52.991 32.6248 52.3438 32.6248H47.6562C47.009 32.6248 46.4844 33.1494 46.4844 33.7966V35.6072C46.1438 35.7284 45.809 35.8679 45.481 36.0247L44.1995 34.743C43.9798 34.5233 43.6816 34.4 43.371 34.4C43.06 34.4 42.7621 34.5233 42.5421 34.743L39.2279 38.0575C38.7701 38.5153 38.7701 39.2571 39.2279 39.7149L40.5093 40.9966C40.3525 41.3244 40.2133 41.6592 40.0919 41.9998H38.2812C37.634 41.9998 37.1094 42.5247 37.1094 43.1716V46.6873H32.3438V26.7654C32.3438 26.1193 32.8696 25.5935 33.5156 25.5935H66.4844C67.1304 25.5935 67.6562 26.1193 67.6562 26.7654V46.6873Z" fill="white"/>
<path d="M61.7188 27.9373C59.7803 27.9373 58.2031 29.5144 58.2031 31.4529C58.2031 33.3914 59.7803 34.9685 61.7188 34.9685C63.6572 34.9685 65.2344 33.3914 65.2344 31.4529C65.2344 29.5144 63.6572 27.9373 61.7188 27.9373ZM61.7188 32.6248C61.0727 32.6248 60.5469 32.0989 60.5469 31.4529C60.5469 30.8068 61.0727 30.281 61.7188 30.281C62.3648 30.281 62.8906 30.8068 62.8906 31.4529C62.8906 32.0989 62.3648 32.6248 61.7188 32.6248Z" fill="white"/>
<defs>
<filter id="filter0_d_4577_5067" x="0" y="-0.000244141" width="100" height="100" filterUnits="userSpaceOnUse" color-interpolation-filters="sRGB">
<feFlood flood-opacity="0" result="BackgroundImageFix"/>
<feColorMatrix in="SourceAlpha" type="matrix" values="0 0 0 0 0 0 0 0 0 0 0 0 0 0 0 0 0 0 127 0" result="hardAlpha"/>
<feMorphology radius="8" operator="erode" in="SourceAlpha" result="effect1_dropShadow_4577_5067"/>
<feOffset dy="8"/>
<feGaussianBlur stdDeviation="9"/>
<feColorMatrix type="matrix" values="0 0 0 0 0.388235 0 0 0 0 0.4 0 0 0 0 0.945098 0 0 0 0.9 0"/>
<feBlend mode="normal" in2="BackgroundImageFix" result="effect1_dropShadow_4577_5067"/>
<feBlend mode="normal" in="SourceGraphic" in2="effect1_dropShadow_4577_5067" result="shape"/>
</filter>
</defs>
</svg>
