<svg xmlns="http://www.w3.org/2000/svg" width="21" height="20" viewBox="0 0 21 20" fill="none">
  <path d="M10.4974 1.66675C5.9024 1.66675 2.16406 5.40508 2.16406 10.0001C2.16406 14.5951 5.9024 18.3334 10.4974 18.3334C15.0924 18.3334 18.8307 14.5951 18.8307 10.0001C18.8307 5.40508 15.0924 1.66675 10.4974 1.66675ZM10.4974 16.6667C6.82156 16.6667 3.83073 13.6759 3.83073 10.0001C3.83073 6.32425 6.82156 3.33341 10.4974 3.33341C14.1732 3.33341 17.1641 6.32425 17.1641 10.0001C17.1641 13.6759 14.1732 16.6667 10.4974 16.6667Z" fill="#009FDE"/>
  <path d="M8.8298 11.3226L6.91397 9.41005L5.7373 10.5901L8.83147 13.6776L14.4198 8.08922L13.2415 6.91089L8.8298 11.3226Z" fill="#009FDE"/>
</svg>