<svg xmlns="http://www.w3.org/2000/svg" width="41" height="40" viewBox="0 0 41 40" fill="none">
  <g clip-path="url(#clip0_4649_5680)">
    <path d="M34.4973 37.5002V38.5002H35.4973H36.9973V39.0002H3.99731V38.5002H5.49731H6.49731V37.5002V1.87524C6.49731 1.39198 6.88905 1.00024 7.37231 1.00024H33.6223C34.1056 1.00024 34.4973 1.39198 34.4973 1.87524V37.5002ZM22.9973 38.5002H23.9973V37.5002V30.9377C23.9973 29.8677 23.1298 29.0002 22.0598 29.0002H18.9348C17.8648 29.0002 16.9973 29.8677 16.9973 30.9377V37.5002V38.5002H17.9973H22.9973ZM13.9348 4.00024C12.8648 4.00024 11.9973 4.86772 11.9973 5.93774V9.06274C11.9973 10.1328 12.8648 11.0002 13.9348 11.0002H17.0598C18.1298 11.0002 18.9973 10.1328 18.9973 9.06274V5.93774C18.9973 4.86772 18.1298 4.00024 17.0598 4.00024H13.9348ZM13.9348 11.5002C12.8648 11.5002 11.9973 12.3677 11.9973 13.4377V16.5627C11.9973 17.6328 12.8648 18.5002 13.9348 18.5002H17.0598C18.1298 18.5002 18.9973 17.6328 18.9973 16.5627V13.4377C18.9973 12.3677 18.1298 11.5002 17.0598 11.5002H13.9348ZM13.9348 26.0002H17.0598C18.1298 26.0002 18.9973 25.1328 18.9973 24.0627V20.9377C18.9973 19.8677 18.1298 19.0002 17.0598 19.0002H13.9348C12.8648 19.0002 11.9973 19.8677 11.9973 20.9377V24.0627C11.9973 25.1328 12.8648 26.0002 13.9348 26.0002ZM27.0598 26.0002C28.1298 26.0002 28.9973 25.1328 28.9973 24.0627V20.9377C28.9973 19.8677 28.1298 19.0002 27.0598 19.0002H23.9348C22.8648 19.0002 21.9973 19.8677 21.9973 20.9377V24.0627C21.9973 25.1328 22.8648 26.0002 23.9348 26.0002H27.0598ZM27.0598 18.5002C28.1298 18.5002 28.9973 17.6328 28.9973 16.5627V13.4377C28.9973 12.3677 28.1298 11.5002 27.0598 11.5002H23.9348C22.8648 11.5002 21.9973 12.3677 21.9973 13.4377V16.5627C21.9973 17.6328 22.8648 18.5002 23.9348 18.5002H27.0598ZM27.0598 11.0002C28.1298 11.0002 28.9973 10.1328 28.9973 9.06274V5.93774C28.9973 4.86772 28.1298 4.00024 27.0598 4.00024H23.9348C22.8648 4.00024 21.9973 4.86772 21.9973 5.93774V9.06274C21.9973 10.1328 22.8648 11.0002 23.9348 11.0002H27.0598Z" fill="#009FDE" stroke="white" stroke-width="2"/>
  </g>
  <defs>
    <clipPath id="clip0_4649_5680">
      <rect width="40" height="40" fill="white" transform="translate(0.497314 0.000244141)"/>
    </clipPath>
  </defs>
</svg>