<svg xmlns="http://www.w3.org/2000/svg" width="41" height="40" viewBox="0 0 41 40" fill="none">
  <g clip-path="url(#clip0_4649_5669)">
    <path d="M36.7279 11.2699L36.7316 11.2661C37.0647 10.9294 37.6161 10.9239 37.9621 11.2699L41.0558 14.3636C41.3867 14.6945 41.3978 15.2506 41.0457 15.608C41.0452 15.6085 41.0448 15.6089 41.0443 15.6094L17.9228 38.7465L17.9193 38.7501C17.5862 39.0867 17.035 39.0922 16.689 38.7465C16.6889 38.7464 16.6889 38.7463 16.6888 38.7463L3.56401 25.6137L3.5638 25.6135C3.21995 25.2696 3.21995 24.7153 3.5638 24.3714L6.66537 21.2699L6.66913 21.2661C7.00224 20.9294 7.55363 20.9239 7.89958 21.2699L16.6024 29.9805L17.3095 30.6882L18.0169 29.9808L36.7279 11.2699ZM17.1397 21.2363L17.1398 21.2363L17.1347 21.2313L8.38474 12.4656L8.38411 12.465C8.29387 12.3748 8.28538 12.2159 8.38797 12.1097L11.9232 8.57454L11.9232 8.57456L11.9288 8.56886C12.0214 8.47477 12.1764 8.47477 12.269 8.56886L12.2689 8.56888L12.2739 8.5739L16.6021 12.9098L17.3092 13.6182L18.0169 12.9105L29.8529 1.07454L29.8529 1.07456L29.8585 1.06886C29.9511 0.974768 30.106 0.974768 30.1986 1.06886L30.1986 1.06888L30.2035 1.07376L33.7347 4.61282L33.7355 4.6136C33.8258 4.70386 33.8342 4.86278 33.7316 4.96892C33.731 4.96952 33.7305 4.9701 33.7299 4.97069L17.4852 21.231L17.4852 21.231L17.4799 21.2363C17.3873 21.3304 17.2323 21.3304 17.1397 21.2363Z" fill="#009FDE" stroke="white" stroke-width="2"/>
  </g>
  <defs>
    <clipPath id="clip0_4649_5669">
      <rect width="40" height="40" fill="white" transform="translate(0.709717 0.000244141)"/>
    </clipPath>
  </defs>
</svg>