<svg width="535" height="338" viewBox="0 0 535 338" fill="none" xmlns="http://www.w3.org/2000/svg">
<g opacity="0.8" clip-path="url(#clip0_5755_6301)">
<path d="M292.554 327.481C292.554 327.481 462.146 333.609 476.552 322.601C612.362 218.964 472.986 181.333 442.963 70.602C410.778 -48.1753 195.907 14.3676 153.294 34.374C-39.819 125.06 -13.3239 274.581 34.4522 325.331L292.554 327.481Z" fill="#6AA4D3"/>
<path d="M511.299 326.052C530.945 331.201 469.999 337.986 272.65 336.261C4.86679 333.918 48.6391 325.511 36.666 324.854C-25.246 321.468 117.683 318.186 269.921 318.186C422.158 318.186 503.51 324.03 511.299 326.052Z" fill="#5B97C1"/>
<path d="M475.689 218.578C475.689 240.221 469.271 261.379 457.247 279.375C445.223 297.37 428.132 311.396 408.136 319.679C388.14 327.961 366.137 330.128 344.91 325.906C323.682 321.684 304.184 311.261 288.88 295.957C273.576 280.653 263.153 261.154 258.931 239.927C254.708 218.7 256.876 196.697 265.158 176.701C273.441 156.705 287.467 139.614 305.462 127.59C323.458 115.565 344.615 109.147 366.259 109.147C380.629 109.147 394.859 111.978 408.136 117.477C421.413 122.977 433.476 131.037 443.638 141.199C453.8 151.361 461.86 163.424 467.36 176.701C472.859 189.978 475.689 204.207 475.689 218.578Z" fill="#282D35"/>
<path d="M466.87 218.861C466.87 238.76 460.969 258.213 449.914 274.758C438.859 291.304 423.145 304.199 404.761 311.815C386.376 319.43 366.147 321.422 346.63 317.54C327.113 313.658 309.186 304.075 295.115 290.005C281.044 275.934 271.462 258.007 267.58 238.49C263.698 218.973 265.69 198.743 273.305 180.359C280.92 161.974 293.816 146.261 310.361 135.206C326.907 124.15 346.359 118.25 366.258 118.25C379.471 118.248 392.555 120.849 404.763 125.905C416.97 130.96 428.062 138.371 437.405 147.714C446.748 157.057 454.159 168.149 459.215 180.357C464.271 192.564 466.872 205.648 466.87 218.861Z" fill="#F8FCFF"/>
<path d="M366.258 127.094H358.766V150.139H366.258V127.094Z" fill="#282D35"/>
<path d="M312.584 152.105L308.701 156.14L321.104 168.076L324.987 164.04L312.584 152.105Z" fill="#282D35"/>
<path d="M438.895 274.362L435.007 278.392L422.609 266.47L426.484 262.427L438.895 274.362Z" fill="#9E7BF3"/>
<path d="M429.635 160.549L416.135 171.207L419.605 175.602L433.105 164.945L429.635 160.549Z" fill="#282D35"/>
<path d="M316.066 262.92L302.562 273.573L306.031 277.97L319.535 267.316L316.066 262.92Z" fill="#282D35"/>
<path d="M366.258 284.635H358.766V307.667H366.258V284.635Z" fill="#282D35"/>
<path d="M276.59 210.584L276.346 218.073L299.365 218.824L299.61 211.336L276.59 210.584Z" fill="#282D35"/>
<path d="M434.892 214.678L434.646 222.167L457.666 222.922L457.912 215.434L434.892 214.678Z" fill="#282D35"/>
<path d="M372.258 216.866C372.258 218.049 371.907 219.206 371.25 220.19C370.593 221.174 369.659 221.942 368.566 222.395C367.472 222.849 366.269 222.968 365.108 222.738C363.948 222.508 362.881 221.939 362.043 221.103C361.205 220.267 360.634 219.202 360.402 218.041C360.169 216.881 360.286 215.678 360.737 214.584C361.188 213.49 361.954 212.554 362.936 211.894C363.919 211.235 365.075 210.882 366.259 210.879C367.848 210.879 369.372 211.509 370.496 212.632C371.621 213.754 372.255 215.277 372.258 216.866Z" fill="#191D3A"/>
<path d="M362.912 214.69L430.746 162.112L366.259 218.81L362.912 214.69Z" fill="#191D3A"/>
<path d="M363.002 216.608L322.461 265.466L367.508 220.921L363.002 216.608Z" fill="#191D3A"/>
<path d="M459.789 236.538H405.473V253.171H459.789V236.538Z" fill="white"/>
<path d="M471.286 236.538H459.789V253.171H471.286V236.538Z" fill="#CBDDED"/>
<path d="M463.652 252.45H409.336V266.393H463.652V252.45Z" fill="#EBF6FF"/>
<path d="M475.149 252.45H463.652V266.393H475.149V252.45Z" fill="#CBDDED"/>
<path d="M432.639 253.171L463.653 256.66V252.45L432.639 253.171Z" fill="#CBDDED"/>
<path d="M466.767 295.012H412.451V279.473L466.767 283.49V295.012Z" fill="#EBF6FF"/>
<path d="M478.264 283.49H466.768V295.025H478.264V283.49Z" fill="#CBDDED"/>
<path d="M435.754 285.06L466.768 288.537V284.327L435.754 285.06Z" fill="#D2CDF9"/>
<path d="M486.336 288.536L398.443 279.228V266.393H486.336V288.536Z" fill="white"/>
<path d="M486.336 288.536L473.926 288.524L473.861 266.393H486.336V288.536Z" fill="#CBDDED"/>
<path d="M473.86 266.393H398.443L473.86 271.349V266.393Z" fill="#CBDDED"/>
<path d="M475.084 289.27L444.135 284.867L477.543 285.06L475.084 289.27Z" fill="#CBDDED"/>
<path d="M483.04 295.012H403.4V316.113H483.04V295.012Z" fill="white"/>
<path d="M483.04 295.012H470.385V317.027H483.04V295.012Z" fill="#CBDDED"/>
<path d="M470.386 295.012H452.852L471.3 299.595L470.386 295.012Z" fill="#CBDDED"/>
<path d="M490.018 316.113H410.932V329.579H490.018V316.113Z" fill="#EBF6FF"/>
<path d="M490.005 316.113H464.682V329.579H490.005V316.113Z" fill="#CBDDED"/>
<path d="M464.683 316.113H437.531L464.683 319.421V316.113Z" fill="#CBDDED"/>
<path d="M410.932 321.507L449.644 322.846H410.932V321.507Z" fill="#CBDDED"/>
<path d="M403.4 295.012H437.53L403.4 297.304V295.012Z" fill="#CBDDED"/>
<path d="M405.473 244.854H432.637L405.473 247.674V244.854Z" fill="#CBDDED"/>
<path d="M412.451 289.245L421.141 288.253L412.451 287.249V289.245Z" fill="#CBDDED"/>
<path d="M469.394 225.955H396.166V236.537H469.394V225.955Z" fill="#EBF6FF"/>
<path d="M469.406 225.955H453.365V236.537H469.406V225.955Z" fill="#CBDDED"/>
<path d="M453.366 225.955H436.166L453.366 228.555V225.955Z" fill="#CBDDED"/>
<path d="M396.166 230.19L432.021 231.246H396.166V230.19Z" fill="#CBDDED"/>
<path d="M457.034 215.707H423.574V225.955H457.034V215.707Z" fill="white"/>
<path d="M464.116 215.707H457.035V225.955H464.116V215.707Z" fill="#CBDDED"/>
<path d="M423.574 220.831H440.311L423.574 222.569V220.831Z" fill="#CBDDED"/>
<path d="M50.4929 168.356H19.2344V319.203H50.4929V168.356Z" fill="#E9504A"/>
<path d="M136.803 168.356H50.4941V319.203H136.803V168.356Z" fill="#B23436"/>
<path d="M46.2575 190.396C46.2575 198.121 41.0435 204.365 34.6708 204.365C28.298 204.365 23.084 198.108 23.084 190.396C23.084 182.685 28.2337 176.415 34.7351 176.415C41.2366 176.415 46.2575 182.672 46.2575 190.396Z" fill="#B23436"/>
<path d="M46.2702 211.15H22.9551V314.117H46.2702V211.15Z" fill="#FFD9E1"/>
<path d="M88.3054 168.356H57.0469V319.203H88.3054V168.356Z" fill="#2667C5"/>
<path d="M174.627 168.356H88.3184V319.203H174.627V168.356Z" fill="#1D5AA3"/>
<path d="M84.0828 190.396C84.0828 198.121 78.8688 204.365 72.4188 204.365C65.9688 204.365 60.832 198.108 60.832 190.396C60.832 182.685 65.9817 176.415 72.4188 176.415C78.8559 176.415 84.0828 182.672 84.0828 190.396Z" fill="#1D5AA3"/>
<path d="M84.0956 211.15H60.7676V314.117H84.0956V211.15Z" fill="#FFD9E1"/>
<path d="M119.152 212.334H96.7637V320.387H119.152V212.334Z" fill="#566376"/>
<path d="M180.974 212.334H119.152V320.387H180.974V212.334Z" fill="#2C3C55"/>
<path d="M116.126 228.118C116.126 233.641 112.379 238.134 107.77 238.134C103.161 238.134 99.4277 233.641 99.4277 228.118C99.4277 222.595 103.161 218.102 107.77 218.102C112.379 218.102 116.126 222.582 116.126 228.118Z" fill="#2C3C55"/>
<path d="M116.126 242.988H99.4277V316.744H116.126V242.988Z" fill="#2C3C55"/>
<path d="M145.827 307.899H95.1797V323.413H145.827V307.899Z" fill="#F2F2FC"/>
<path d="M84.5328 295.785C84.5328 295.785 93.9567 303.432 112.856 307.706C112.856 307.706 100.278 319.692 100.793 331.742C100.793 331.742 66.9595 317.349 59.1191 321.353C59.1063 321.353 78.8424 310.474 84.5328 295.785Z" fill="#F4F3FF"/>
<path d="M18.0896 301.99C18.0896 301.99 25.4021 305.955 38.6883 306.457C38.6883 306.457 31.7105 316.126 33.5386 324.185C33.5386 324.185 8.89742 318.752 4.12109 322.447C4.15972 322.447 16.107 312.611 18.0896 301.99Z" fill="#F4F3FF"/>
<path d="M39.1252 303.123C39.1252 303.123 46.6566 306.676 59.9556 306.406C59.9556 306.406 53.5185 316.46 55.8616 324.43C55.8616 324.43 30.9629 320.413 26.3926 324.43C26.3926 324.352 37.7605 313.847 39.1252 303.123Z" fill="#E6E4F7"/>
<path d="M60.9991 297.342L43.4258 306.483L53.8668 324.674L74.7744 321.314L60.9991 297.342Z" fill="#D2CDF9"/>
<path d="M200.67 196.499H132.18V217.484H200.67V196.499Z" fill="white"/>
<path d="M215.193 196.499H200.684V217.484H215.193V196.499Z" fill="#CBDDED"/>
<path d="M205.538 216.557H137.047V234.143H205.538V216.557Z" fill="#EBF6FF"/>
<path d="M220.046 216.557H205.537V234.143H220.046V216.557Z" fill="#CBDDED"/>
<path d="M166.438 217.484L205.536 221.874V216.557L166.438 217.484Z" fill="#CBDDED"/>
<path d="M209.476 270.242H140.973V250.648L209.476 255.707V270.242Z" fill="#EBF6FF"/>
<path d="M223.986 255.707H209.477V270.255H223.986V255.707Z" fill="#CBDDED"/>
<path d="M170.365 257.69L209.477 262.08V256.763L170.365 257.69Z" fill="#D2CDF9"/>
<path d="M234.157 262.08L123.311 250.339V234.143H234.157V262.08Z" fill="white"/>
<path d="M234.156 262.08L218.488 262.067L218.424 234.143H234.156V262.08Z" fill="#CBDDED"/>
<path d="M218.425 234.143H123.311L218.425 240.387V234.143Z" fill="#CBDDED"/>
<path d="M219.97 262.994L180.936 257.432L223.047 257.69L219.97 262.994Z" fill="#CBDDED"/>
<path d="M229.998 270.242H129.566V296.853H229.998V270.242Z" fill="white"/>
<path d="M229.985 270.242H214.021V298.012H229.985V270.242Z" fill="#CBDDED"/>
<path d="M214.022 270.242H191.93L215.18 276.023L214.022 270.242Z" fill="#CBDDED"/>
<path d="M238.791 296.853H139.055V313.834H238.791V296.853Z" fill="#EBF6FF"/>
<path d="M238.79 296.853H206.85V313.834H238.79V296.853Z" fill="#CBDDED"/>
<path d="M206.851 296.853H172.605L206.851 301.024V296.853Z" fill="#CBDDED"/>
<path d="M139.055 303.651L187.874 305.337H139.055V303.651Z" fill="#CBDDED"/>
<path d="M129.566 270.242H172.605L129.566 273.139V270.242Z" fill="#CBDDED"/>
<path d="M132.18 206.991H166.438L132.18 210.532V206.991Z" fill="#CBDDED"/>
<path d="M140.973 262.968L151.929 261.719L140.973 260.445V262.968Z" fill="#CBDDED"/>
<path d="M212.786 183.161H120.439V196.499H212.786V183.161Z" fill="#EBF6FF"/>
<path d="M212.786 183.161H192.561V196.499H212.786V183.161Z" fill="#CBDDED"/>
<path d="M192.561 183.161H170.881L192.561 186.431V183.161Z" fill="#D2CDF9"/>
<path d="M120.439 188.491L165.654 189.83H120.439V188.491Z" fill="#CBDDED"/>
<path d="M197.196 170.235H154.994V183.161H197.196V170.235Z" fill="white"/>
<path d="M206.13 170.235H197.195V183.161H206.13V170.235Z" fill="#CBDDED"/>
<path d="M154.994 176.698H176.108L154.994 178.874V176.698Z" fill="#CBDDED"/>
<path d="M192.895 124.699H124.404V145.684H192.895V124.699Z" fill="white"/>
<path d="M207.405 124.699H192.908V145.684H207.405V124.699Z" fill="#CBDDED"/>
<path d="M197.762 144.757H129.271V162.343H197.762V144.757Z" fill="#EBF6FF"/>
<path d="M212.271 144.757H197.762V162.343H212.271V144.757Z" fill="#CBDDED"/>
<path d="M158.662 145.671L197.761 150.074V144.757L158.662 145.671Z" fill="#CBDDED"/>
<path d="M201.702 198.443H133.211V178.848L201.702 183.895V198.443Z" fill="#EBF6FF"/>
<path d="M216.198 183.895H201.701V198.443H216.198V183.895Z" fill="#CBDDED"/>
<path d="M162.59 185.877L201.702 190.28V184.963L162.59 185.877Z" fill="#D2CDF9"/>
<path d="M226.38 190.281L115.533 178.539V162.344H226.38V190.281Z" fill="white"/>
<path d="M226.381 190.281L210.713 190.255L210.648 162.344H226.381V190.281Z" fill="#CBDDED"/>
<path d="M210.648 162.344H115.533L210.648 168.587V162.344Z" fill="#CBDDED"/>
<path d="M212.193 191.182L173.158 185.633L215.283 185.878L212.193 191.182Z" fill="#CBDDED"/>
<path d="M222.223 198.443H121.791V225.054H222.223V198.443Z" fill="white"/>
<path d="M222.21 198.443H206.246V226.213H222.21V198.443Z" fill="#CBDDED"/>
<path d="M206.259 198.443H184.154L207.405 204.223L206.259 198.443Z" fill="#CBDDED"/>
<path d="M231.016 225.054H131.279V242.035H231.016V225.054Z" fill="#EBF6FF"/>
<path d="M231.002 225.054H199.074V242.035H231.002V225.054Z" fill="#CBDDED"/>
<path d="M199.075 225.054H164.83L199.075 229.212V225.054Z" fill="#CBDDED"/>
<path d="M131.279 231.838L180.111 233.538H131.279V231.838Z" fill="#CBDDED"/>
<path d="M121.791 198.443H164.829L121.791 201.327V198.443Z" fill="#CBDDED"/>
<path d="M124.418 135.192H158.663L124.418 138.732V135.192Z" fill="#CBDDED"/>
<path d="M133.211 191.169L144.154 189.907L133.211 188.646V191.169Z" fill="#CBDDED"/>
<path d="M205.009 111.349H112.662V124.687H205.009V111.349Z" fill="#EBF6FF"/>
<path d="M205.011 111.349H184.785V124.687H205.011V111.349Z" fill="#CBDDED"/>
<path d="M184.784 111.349H163.104L184.784 114.632V111.349Z" fill="#D2CDF9"/>
<path d="M112.662 116.692L157.876 118.018H112.662V116.692Z" fill="#CBDDED"/>
<path d="M189.432 98.4231H147.23V111.349H189.432V98.4231Z" fill="white"/>
<path d="M198.353 98.4231H189.418V111.349H198.353V98.4231Z" fill="#CBDDED"/>
<path d="M147.23 104.886H168.331L147.23 107.075V104.886Z" fill="#CBDDED"/>
<path d="M220.292 207.97H196.5V322.782H220.292V207.97Z" fill="#FEC257"/>
<path d="M285.988 207.97H220.291V322.782H285.988V207.97Z" fill="#E79E08"/>
<path d="M217.073 224.745C217.073 230.615 213.107 235.379 208.202 235.379C203.297 235.379 199.332 230.615 199.332 224.745C199.332 218.874 203.297 214.098 208.202 214.098C213.107 214.098 217.073 218.861 217.073 224.745Z" fill="#FEB824"/>
<path d="M217.073 240.542H199.332V318.907H217.073V240.542Z" fill="#FFEAAE"/>
<path d="M319.628 291.961H251.549V310.332H319.628V291.961Z" fill="white"/>
<path d="M334.048 291.961H319.629V310.332H334.048V291.961Z" fill="#CBDDED"/>
<path d="M324.456 309.521H256.377V324.932H324.456V309.521Z" fill="#EBF6FF"/>
<path d="M338.876 309.521H324.457V324.932H338.876V309.521Z" fill="#CBDDED"/>
<path d="M285.59 310.332L324.457 314.182V309.521L285.59 310.332Z" fill="#CBDDED"/>
<path d="M251.549 301.14H285.588L251.549 304.256V301.14Z" fill="#CBDDED"/>
<path d="M329.438 262.466H261.359V280.838H329.438V262.466Z" fill="white"/>
<path d="M343.859 262.466H329.439V280.838H343.859V262.466Z" fill="#CBDDED"/>
<path d="M334.28 280.027H266.201V295.424H334.28V280.027Z" fill="#EBF6FF"/>
<path d="M348.686 280.027H334.279V295.424H348.686V280.027Z" fill="#CBDDED"/>
<path d="M295.398 280.838L334.278 284.687V280.027L295.398 280.838Z" fill="#CBDDED"/>
<path d="M261.359 271.658H295.399L261.359 274.761V271.658Z" fill="#CBDDED"/>
<path d="M267.579 301.256C267.579 301.256 277.003 308.916 295.902 313.19C295.902 313.19 283.311 325.163 283.826 337.227C283.826 337.227 249.993 322.82 242.152 326.837C242.152 326.798 261.901 315.92 267.579 301.256Z" fill="#F4F3FF"/>
<path d="M201.135 307.423C201.135 307.423 208.46 311.401 221.733 311.89C221.733 311.89 214.755 321.559 216.584 329.631C216.584 329.631 191.942 324.198 187.166 327.893C187.218 327.893 199.152 318.057 201.135 307.423Z" fill="#F4F3FF"/>
<path d="M222.171 308.556C222.171 308.556 229.702 312.109 243.001 311.851C243.001 311.851 236.564 321.906 238.92 329.875C238.92 329.875 214.009 325.871 209.451 329.875C209.451 329.798 220.806 319.28 222.171 308.556Z" fill="#E6E4F7"/>
<path d="M244.057 302.788L226.471 311.929L236.925 330.107L257.832 326.76L244.057 302.788Z" fill="#D2CDF9"/>
</g>
<defs>
<clipPath id="clip0_5755_6301">
<rect width="535" height="337.188" fill="white"/>
</clipPath>
</defs>
</svg>
