<svg width="535" height="333" viewBox="0 0 535 333" fill="none" xmlns="http://www.w3.org/2000/svg">
<g clip-path="url(#clip0_5755_6184)">
<path d="M292.554 327.363C292.554 327.363 462.146 333.489 476.552 322.486C612.362 218.886 472.986 181.268 442.963 70.5766C410.778 -48.158 195.907 14.3624 153.294 34.3617C-39.819 125.015 -13.3239 274.482 34.4522 325.214L292.554 327.363Z" fill="#6AA4D3"/>
<path d="M470.334 169.698C469.291 169.698 468.235 169.608 467.192 169.492L467.295 168.462C468.313 168.565 469.342 168.63 470.36 168.656L470.334 169.698ZM473.475 169.698V168.656C474.492 168.656 475.522 168.514 476.526 168.372L476.668 169.402C475.574 169.505 474.518 169.595 473.475 169.659V169.698ZM464.077 169.08C463.034 168.887 462.004 168.656 461 168.385L461.27 167.381C462.249 167.652 463.253 167.87 464.257 168.064L464.077 169.08ZM479.706 168.861L479.487 167.845C480.479 167.639 481.483 167.381 482.461 167.085L482.757 168.076C481.753 168.334 480.723 168.591 479.706 168.823V168.861ZM458 167.433C457.009 167.085 456.031 166.686 455.078 166.249L455.503 165.309C456.43 165.721 457.382 166.12 458.348 166.455L458 167.433ZM485.731 167.047L485.358 166.017C486.311 165.644 487.25 165.232 488.164 164.73L488.615 165.657C487.675 166.197 486.71 166.622 485.731 167.008V167.047ZM452.258 164.833C451.344 164.331 450.443 163.778 449.568 163.199L450.147 162.337C450.984 162.903 451.872 163.43 452.722 163.932L452.258 164.833ZM491.383 164.293L490.868 163.392C491.731 162.877 492.606 162.324 493.443 161.732L494.035 162.581C493.173 163.147 492.284 163.714 491.383 164.254V164.293ZM447.019 161.358C446.195 160.715 445.384 160.072 444.611 159.312L445.319 158.553C446.066 159.248 446.851 159.917 447.649 160.548L447.019 161.358ZM496.533 160.664L495.876 159.866C496.661 159.222 497.421 158.579 498.155 157.819L498.876 158.566C498.129 159.248 497.344 159.956 496.533 160.625V160.664ZM442.384 157.009C441.671 156.236 440.989 155.438 440.337 154.615L441.161 153.971C441.792 154.769 442.448 155.554 443.143 156.301L442.384 157.009ZM501.039 156.185L500.266 155.503C500.936 154.731 501.554 153.933 502.185 153.122L503.021 153.74C502.403 154.628 501.734 155.451 501.039 156.236V156.185ZM438.496 152.067C437.904 151.192 437.35 150.278 436.848 149.377L437.762 148.875C438.251 149.75 438.792 150.638 439.358 151.449L438.496 152.067ZM504.798 151.14L503.923 150.587C504.463 149.724 504.965 148.836 505.442 147.923L506.369 148.399C505.879 149.39 505.352 150.304 504.798 151.192V151.14ZM435.432 146.571C434.994 145.619 434.595 144.641 434.247 143.663L435.213 143.302C435.561 144.268 435.96 145.22 436.372 146.134L435.432 146.571ZM507.708 145.555L506.755 145.156C507.154 144.203 507.514 143.238 507.823 142.273L508.815 142.608C508.531 143.65 508.119 144.641 507.708 145.606V145.555ZM433.295 140.651C433.011 139.648 432.78 138.618 432.587 137.588L433.604 137.395C433.784 138.399 434.016 139.403 434.286 140.381L433.295 140.651ZM509.677 139.583L508.673 139.339C508.918 138.348 509.111 137.331 509.278 136.327L510.295 136.494C510.141 137.576 509.922 138.618 509.677 139.635V139.583ZM432.123 134.435C432.007 133.406 431.943 132.35 431.904 131.295H432.947C432.947 132.312 433.037 133.341 433.153 134.358L432.123 134.435ZM510.656 133.329L509.626 133.251C509.703 132.235 509.742 131.192 509.742 130.188C509.742 129.455 509.742 128.734 509.742 128.013L510.772 127.949C510.772 128.696 510.836 129.429 510.836 130.188C510.797 131.269 510.759 132.376 510.669 133.419L510.656 133.329ZM432.973 128.181H431.93C431.93 127.138 432.085 126.083 432.213 125.041L433.243 125.182C433.127 126.25 433.037 127.28 432.986 128.297L432.973 128.181ZM509.394 124.938C509.252 123.934 509.072 122.917 508.866 121.913L509.87 121.694C510.102 122.724 510.282 123.766 510.424 124.796L509.394 124.938ZM433.771 122.261L432.767 122.042C432.986 121.025 433.243 119.996 433.539 118.992L434.531 119.288C434.247 120.227 433.99 121.231 433.771 122.261ZM508.094 119.108C507.793 118.13 507.459 117.164 507.09 116.212L508.055 115.826C508.441 116.804 508.789 117.808 509.085 118.799L508.094 119.108ZM435.535 116.354L434.569 115.98C434.943 115.002 435.367 114.037 435.857 113.098L436.796 113.548C436.307 114.462 435.895 115.401 435.535 116.354ZM505.854 113.368C505.403 112.467 504.914 111.553 504.386 110.678L505.274 110.15C505.815 111.051 506.317 111.978 506.781 112.917L505.854 113.368ZM438.2 110.794L437.311 110.266C437.839 109.353 438.419 108.465 439.011 107.615L439.861 108.207C439.294 109.082 438.74 109.962 438.2 110.845V110.794ZM502.725 108.104C502.133 107.281 501.502 106.47 500.846 105.685L501.644 105.016C502.313 105.826 502.931 106.663 503.562 107.512L502.725 108.104ZM441.727 105.826L440.929 105.157C441.586 104.359 442.294 103.574 443.028 102.815L443.774 103.536C443.053 104.243 442.371 105.041 441.727 105.826ZM498.786 103.407C498.078 102.673 497.331 101.965 496.558 101.309L497.241 100.524C498.026 101.206 498.799 101.927 499.532 102.686L498.786 103.407ZM446.002 101.425L445.319 100.64C446.105 99.9578 446.928 99.3529 447.765 98.6579L448.383 99.4945C447.559 100.099 446.735 100.743 445.989 101.425H446.002ZM494.19 99.3786C493.366 98.7738 492.503 98.1946 491.615 97.6541L492.168 96.779C493.057 97.3324 493.932 97.9244 494.743 98.555L494.19 99.3786ZM450.894 97.8086L450.353 96.9334C451.241 96.3672 452.155 95.8395 453.069 95.3633L453.559 96.2771C452.657 96.7018 451.769 97.2166 450.894 97.8086ZM488.963 96.1999C488.061 95.7237 487.122 95.2861 486.182 94.9129L486.645 93.9477C487.611 94.3595 488.564 94.8099 489.491 95.2346L488.963 96.1999ZM456.327 94.9129L455.915 93.9606C456.88 93.5616 457.872 93.1884 458.863 92.8538L459.185 93.8319C458.219 94.1536 457.254 94.5268 456.327 94.9129ZM483.362 93.7675C482.397 93.4586 481.406 93.1755 480.414 92.931L480.659 91.9272C481.676 92.1717 482.693 92.4677 483.684 92.7894L483.362 93.7675ZM462.184 92.9825L461.94 91.9786C462.957 91.7341 463.987 91.5153 465.03 91.348L465.184 92.3776C464.128 92.532 463.124 92.7379 462.184 92.9825ZM477.402 92.339C476.398 92.1846 475.38 92.0687 474.363 91.9915L474.441 90.9491C475.483 91.0392 476.539 91.155 477.569 91.3223L477.402 92.339ZM468.235 92.0044L468.145 90.9748C469.188 90.8847 470.244 90.8461 471.299 90.8333V91.8757C470.231 91.8757 469.201 91.9143 468.184 92.0044H468.235Z" fill="#0B2751"/>
<path d="M215.437 237.662C192.328 237.661 170.139 228.614 153.622 212.459C137.105 196.303 127.573 174.325 127.068 151.23H128.098C129.115 198.333 168.292 236.658 215.437 236.658V237.662Z" fill="#7490C1"/>
<path d="M296.931 117.744C292.28 105.672 284.997 94.7874 275.61 85.8825C266.223 76.9777 254.969 70.2762 242.666 66.2654L242.988 65.2744C255.437 69.335 266.824 76.1176 276.322 85.1292C285.82 94.1407 293.19 105.155 297.896 117.37L296.931 117.744Z" fill="#7490C1"/>
<path d="M163.798 78.8388L163.193 78.0152C178.324 66.8654 196.64 60.8737 215.437 60.9244C220.791 60.9252 226.134 61.4076 231.401 62.3658L231.208 63.3825C226.004 62.4392 220.726 61.9654 215.437 61.9668C196.861 61.9179 178.76 67.8321 163.798 78.8388Z" fill="#7490C1"/>
<path d="M128.305 143.02L127.262 142.942C128.87 119.916 139.479 98.4465 156.795 83.176L157.49 83.9482C140.371 99.037 129.886 120.259 128.305 143.02Z" fill="#7490C1"/>
<path d="M133.7 157.536L127.713 151.565L121.74 157.536L121.006 156.803L127.713 150.098L134.434 156.803L133.7 157.536Z" fill="#7490C1"/>
<path d="M157.503 92.6479L156.473 92.5707L157.091 84.1411L148.658 83.5234L148.735 82.481L158.198 83.1759L157.503 92.6479Z" fill="#7490C1"/>
<path d="M224.668 68.7748L224.037 67.9641L230.706 62.7647L225.505 56.0983L226.316 55.4548L232.161 62.9449L224.668 68.7748Z" fill="#7490C1"/>
<path d="M297.588 117.924L289.426 113.085L289.954 112.197L297.228 116.508L301.54 109.237L302.429 109.764L297.588 117.924Z" fill="#7490C1"/>
<path d="M215.682 257.16C194.373 257.162 173.543 250.848 155.825 239.015C138.106 227.183 124.296 210.364 116.141 190.685C107.985 171.006 105.851 149.352 110.007 128.46C114.163 107.569 124.424 88.3787 139.491 73.3169C154.559 58.255 173.756 47.998 194.655 43.8431C215.554 39.6882 237.216 41.8219 256.902 49.9745C276.588 58.1271 293.413 71.9323 305.249 89.6442C317.086 107.356 323.403 128.179 323.4 149.48C323.366 178.028 312.006 205.397 291.812 225.583C271.619 245.77 244.24 257.125 215.682 257.16ZM215.682 42.8812C194.59 42.8787 173.972 49.1284 156.434 60.8401C138.896 72.5517 125.226 89.1993 117.153 108.677C109.08 128.156 106.966 149.589 111.079 170.268C115.192 190.947 125.348 209.943 140.261 224.852C155.173 239.761 174.174 249.915 194.86 254.029C215.546 258.143 236.988 256.033 256.474 247.965C275.96 239.898 292.615 226.235 304.333 208.704C316.051 191.174 322.306 170.564 322.306 149.48C322.275 121.22 311.032 94.1258 291.043 74.1417C271.054 54.1575 243.952 42.9153 215.682 42.8812Z" fill="#0B2751"/>
<path d="M154.761 68.7622H153.782V67.7326C154.796 67.7733 155.811 67.7432 156.821 67.6425L156.924 68.6721C156.205 68.7393 155.483 68.7693 154.761 68.7622ZM150.628 68.3632C149.587 68.1615 148.563 67.8819 147.564 67.5267L147.912 66.5486C148.865 66.8866 149.841 67.1534 150.834 67.3465L150.628 68.3632ZM160.103 68.093L159.846 67.0891C160.825 66.8436 161.785 66.5252 162.717 66.1368L163.129 67.0891C162.143 67.5011 161.128 67.8367 160.091 68.093H160.103ZM144.654 66.2526C143.719 65.7549 142.82 65.1915 141.964 64.5667L142.569 63.7302C143.391 64.3219 144.251 64.8593 145.144 65.3389L144.654 66.2526ZM165.948 65.6349L165.408 64.7469C166.274 64.2491 167.1 63.6854 167.879 63.061L168.536 63.8589C167.721 64.5174 166.856 65.1113 165.948 65.6349ZM139.518 62.4818C138.761 61.7359 138.06 60.9359 137.419 60.0881L138.256 59.4703C138.863 60.2825 139.526 61.0522 140.239 61.774L139.518 62.4818ZM170.841 61.6067L170.068 60.9117C170.747 60.16 171.371 59.36 171.935 58.518L172.797 59.0971C172.204 59.9822 171.55 60.825 170.841 61.6196V61.6067ZM135.707 57.4112C135.202 56.4812 134.772 55.513 134.419 54.5156L135.398 54.1681C135.757 55.1171 136.188 56.0377 136.685 56.9222L135.707 57.4112ZM174.329 56.3302L173.39 55.8797C173.818 54.9676 174.179 54.0257 174.471 53.0613L175.462 53.3573C175.174 54.379 174.809 55.3772 174.368 56.343L174.329 56.3302ZM133.531 51.4783C133.31 50.4356 133.172 49.377 133.119 48.3124H134.149C134.213 49.3193 134.342 50.3209 134.535 51.311L133.531 51.4783ZM176.196 50.2686L175.179 50.1142C175.323 49.1125 175.396 48.1018 175.398 47.0898C175.398 46.3048 175.398 45.5326 175.269 44.7604L176.299 44.6446C176.5 46.5162 176.466 48.4056 176.196 50.2686ZM134.201 45.2366L133.171 45.1337C133.265 44.0799 133.437 43.0346 133.686 42.0064L134.69 42.238C134.456 43.2247 134.292 44.2268 134.201 45.2366ZM174.703 41.7876C174.446 40.8113 174.115 39.8561 173.711 38.9305L174.664 38.5187C175.088 39.49 175.437 40.4925 175.707 41.5173L174.703 41.7876ZM135.617 39.3552L134.651 38.9691C135.053 37.9836 135.526 37.0287 136.067 36.1121L136.956 36.6397C136.443 37.5106 135.995 38.4182 135.617 39.3552ZM172.308 36.2408C171.777 35.3829 171.183 34.5656 170.532 33.7956L171.33 33.1264C172.015 33.937 172.639 34.7974 173.197 35.7003L172.308 36.2408ZM138.681 34.1559L137.87 33.4996C138.538 32.6757 139.265 31.9015 140.045 31.183L140.754 31.9424C140.007 32.6262 139.314 33.3662 138.681 34.1559ZM168.42 31.582C167.662 30.9111 166.853 30.3001 166 29.7545L166.566 28.8794C167.468 29.4624 168.329 30.1075 169.141 30.8098L168.42 31.582ZM143.122 30.0119L142.53 29.1625C143.407 28.5575 144.328 28.0197 145.285 27.5538L145.736 28.4933C144.827 28.9463 143.953 29.4669 143.122 30.0505V30.0119ZM163.348 28.3131C162.425 27.8947 161.475 27.5421 160.503 27.2578L160.799 26.2669C161.819 26.5647 162.817 26.9346 163.785 27.3737L163.348 28.3131ZM148.555 27.3994L148.246 26.4084C149.256 26.0868 150.289 25.8416 151.336 25.6749L151.503 26.7044C150.503 26.861 149.517 27.0977 148.555 27.4123V27.3994ZM157.567 26.6401C156.646 26.5114 155.717 26.4469 154.786 26.447H154.49V25.4175H154.748C155.725 25.4173 156.701 25.4817 157.67 25.6105L157.567 26.6401Z" fill="#0B2751"/>
<path d="M381.953 264.817H340.627V328.882H381.953V264.817Z" fill="#080638"/>
<path d="M486.002 117.332H236.59C230.589 117.332 225.725 122.195 225.725 128.194V276.966C225.725 282.965 230.589 287.828 236.59 287.828H486.002C492.003 287.828 496.868 282.965 496.868 276.966V128.194C496.868 122.195 492.003 117.332 486.002 117.332Z" fill="#0B2751"/>
<path d="M407.211 324.944H315.379V328.882H407.211V324.944Z" fill="#200151"/>
<path d="M487.365 127.434H235.186V277.481H487.365V127.434Z" fill="#2F568E"/>
<path d="M487.365 127.434H235.186V136.726H487.365V127.434Z" fill="#A6BEED"/>
<path d="M240.362 134.397C241.35 134.397 242.151 133.596 242.151 132.608C242.151 131.62 241.35 130.819 240.362 130.819C239.373 130.819 238.572 131.62 238.572 132.608C238.572 133.596 239.373 134.397 240.362 134.397Z" fill="#0B2751"/>
<path d="M247.752 134.397C248.741 134.397 249.542 133.596 249.542 132.608C249.542 131.62 248.741 130.819 247.752 130.819C246.764 130.819 245.963 131.62 245.963 132.608C245.963 133.596 246.764 134.397 247.752 134.397Z" fill="#0B2751"/>
<path d="M255.141 134.397C256.129 134.397 256.931 133.596 256.931 132.608C256.931 131.62 256.129 130.819 255.141 130.819C254.153 130.819 253.352 131.62 253.352 132.608C253.352 133.596 254.153 134.397 255.141 134.397Z" fill="#0B2751"/>
<path d="M291.409 324.274H283.543V326.681H291.409V324.274Z" fill="#2F568E"/>
<path d="M300.794 324.274H292.928V326.681H300.794V324.274Z" fill="#2F568E"/>
<path d="M310.192 324.274H302.326V326.681H310.192V324.274Z" fill="#2F568E"/>
<path d="M366.542 324.274H311.711V326.681H366.542V324.274Z" fill="#2F568E"/>
<path d="M375.927 324.274H368.061V326.681H375.927V324.274Z" fill="#2F568E"/>
<path d="M385.313 324.274H377.447V326.681H385.313V324.274Z" fill="#2F568E"/>
<path d="M394.71 324.274H386.844V326.681H394.71V324.274Z" fill="#2F568E"/>
<path d="M404.097 324.274H396.23V326.681H404.097V324.274Z" fill="#2F568E"/>
<path d="M413.481 324.274H405.615V326.681H413.481V324.274Z" fill="#2F568E"/>
<path d="M422.88 324.274H415.014V326.681H422.88V324.274Z" fill="#2F568E"/>
<path d="M432.265 324.274H424.398V326.681H432.265V324.274Z" fill="#2F568E"/>
<path d="M438.497 325.96H275.818V330.22H438.497V325.96Z" fill="#080638"/>
<path d="M370.302 117.332H234.466C233.317 117.332 232.179 117.558 231.118 117.998C230.057 118.438 229.092 119.083 228.28 119.896C227.469 120.709 226.825 121.673 226.386 122.735C225.948 123.797 225.723 124.934 225.725 126.083V279.089C225.725 281.407 226.646 283.63 228.285 285.268C229.924 286.907 232.148 287.828 234.466 287.828H313.861L370.302 117.332Z" fill="url(#paint0_linear_5755_6184)"/>
<path d="M282.345 323.502H123.271L146.342 213.622H305.416L282.345 323.502Z" fill="#0B2751"/>
<path d="M273.036 315.974H133.75L153.654 221.151H292.939L273.036 315.974Z" fill="#3F6593"/>
<path d="M109.56 320.993H98.8105V324.57H109.56V320.993Z" fill="#2F568E"/>
<path d="M122.576 320.993H111.826V324.57H122.576V320.993Z" fill="#2F568E"/>
<path d="M135.605 320.993H124.855V324.57H135.605V320.993Z" fill="#2F568E"/>
<path d="M70.2558 320.993H59.5059V324.57H70.2558V320.993Z" fill="#2F568E"/>
<path d="M83.2832 320.993H72.5332V324.57H83.2832V320.993Z" fill="#2F568E"/>
<path d="M96.3125 320.993H85.5625V324.57H96.3125V320.993Z" fill="#2F568E"/>
<path d="M148.633 320.993H137.883V324.57H148.633V320.993Z" fill="#2F568E"/>
<path d="M161.648 320.993H150.898V324.57H161.648V320.993Z" fill="#2F568E"/>
<path d="M174.678 320.993H163.928V324.57H174.678V320.993Z" fill="#2F568E"/>
<path d="M187.693 320.993H176.943V324.57H187.693V320.993Z" fill="#2F568E"/>
<path d="M200.723 320.993H189.973V324.57H200.723V320.993Z" fill="#2F568E"/>
<path d="M213.738 320.993H202.988V324.57H213.738V320.993Z" fill="#2F568E"/>
<path d="M226.768 320.993H216.018V324.57H226.768V320.993Z" fill="#2F568E"/>
<path d="M239.783 320.993H229.033V324.57H239.783V320.993Z" fill="#2F568E"/>
<path d="M273.963 332.974H208.434V322.962H282.512V324.429C282.512 326.695 281.611 328.869 280.008 330.471C278.405 332.074 276.23 332.974 273.963 332.974Z" fill="#080638"/>
<path d="M45.2012 323.026H208.703V333.039H53.7496C51.4824 333.039 49.3081 332.138 47.705 330.536C46.1018 328.933 45.2012 326.76 45.2012 324.493V323.026Z" fill="#0B2751"/>
<path d="M336.622 236.298L389.779 237.057L370.455 158.746L317.311 157.987L336.622 236.298Z" fill="white"/>
<path d="M358.251 182.915L372.296 183.108L367.185 162.427L353.152 162.221L358.251 182.915Z" fill="#B9C3EF"/>
<path d="M369.542 230.327L383.588 230.533L372.825 186.866L358.779 186.66L369.542 230.327Z" fill="#B9C3EF"/>
<path d="M324.805 164.46L349.407 164.821L348.712 162.157L324.109 161.809L324.805 164.46Z" fill="#B9C3EF"/>
<path d="M326.105 169.865L350.707 170.213L350.012 167.549L325.396 167.201L326.105 169.865Z" fill="#B9C3EF"/>
<path d="M327.403 175.258L352.006 175.605L351.311 172.941L326.695 172.594L327.403 175.258Z" fill="#B9C3EF"/>
<path d="M328.704 180.65L353.307 180.998L352.612 178.334L327.996 177.986L328.704 180.65Z" fill="#B9C3EF"/>
<path d="M330.005 186.042L354.608 186.39L353.899 183.726L329.297 183.378L330.005 186.042Z" fill="#B9C3EF"/>
<path d="M331.293 191.435L355.908 191.782L355.2 189.131L330.598 188.771L331.293 191.435Z" fill="#B9C3EF"/>
<path d="M332.542 196.904L357.145 197.252L356.449 194.588L331.834 194.24L332.542 196.904Z" fill="#B9C3EF"/>
<path d="M333.841 202.297L358.443 202.644L357.748 199.98L333.133 199.633L333.841 202.297Z" fill="#B9C3EF"/>
<path d="M335.142 207.689L359.744 208.036L359.036 205.372L334.434 205.025L335.142 207.689Z" fill="#B9C3EF"/>
<path d="M336.442 213.081L361.045 213.429L360.337 210.778L335.734 210.417L336.442 213.081Z" fill="#B9C3EF"/>
<path d="M337.73 218.474L362.346 218.821L361.638 216.17L337.035 215.81L337.73 218.474Z" fill="#B9C3EF"/>
<path d="M339.029 223.866L363.645 224.214L362.937 221.562L338.334 221.202L339.029 223.866Z" fill="#B9C3EF"/>
<path d="M340.381 229.477L364.983 229.825L364.288 227.161L339.686 226.813L340.381 229.477Z" fill="#B9C3EF"/>
<path d="M411.486 185.824H311.363V244.393H411.486V185.824Z" fill="#FF9100"/>
<path d="M380.369 180.714L376.532 185.824H300.986L311.363 244.393H411.473L401.109 185.824V180.714H380.369Z" fill="#FFB500"/>
<path d="M227.281 151.192L280.439 151.964L303.857 74.2574L250.699 73.498L227.281 151.192Z" fill="white"/>
<path d="M278.314 98.2333L292.36 98.4263L298.553 77.8993L284.507 77.7063L278.314 98.2333Z" fill="#B9C3EF"/>
<path d="M263.729 145.284L277.774 145.478L290.842 102.159L276.796 101.953L263.729 145.284Z" fill="#B9C3EF"/>
<path d="M254.717 79.9329L279.319 80.2804L280.066 77.6422L255.463 77.2947L254.717 79.9329Z" fill="#B9C3EF"/>
<path d="M253.068 85.2866L277.671 85.6341L278.431 82.9958L253.815 82.6355L253.068 85.2866Z" fill="#B9C3EF"/>
<path d="M251.42 90.6275L276.035 90.9879L276.782 88.3367L252.18 87.9893L251.42 90.6275Z" fill="#B9C3EF"/>
<path d="M249.785 95.9813L274.388 96.3416L275.134 93.6905L250.532 93.343L249.785 95.9813Z" fill="#B9C3EF"/>
<path d="M248.139 101.335L272.741 101.683L273.488 99.0443L248.885 98.6968L248.139 101.335Z" fill="#B9C3EF"/>
<path d="M246.49 106.689L271.093 107.036L271.852 104.398L247.237 104.05L246.49 106.689Z" fill="#B9C3EF"/>
<path d="M244.752 112.107L269.355 112.467L270.101 109.816L245.499 109.469L244.752 112.107Z" fill="#B9C3EF"/>
<path d="M243.104 117.461L267.706 117.808L268.466 115.17L243.85 114.822L243.104 117.461Z" fill="#B9C3EF"/>
<path d="M241.457 122.814L266.06 123.162L266.819 120.524L242.204 120.176L241.457 122.814Z" fill="#B9C3EF"/>
<path d="M239.809 128.168L264.424 128.515L265.171 125.877L240.568 125.517L239.809 128.168Z" fill="#B9C3EF"/>
<path d="M238.174 133.509L262.776 133.869L263.523 131.231L238.921 130.871L238.174 133.509Z" fill="#B9C3EF"/>
<path d="M236.525 138.863L261.128 139.223L261.875 136.572L237.272 136.224L236.525 138.863Z" fill="#B9C3EF"/>
<path d="M234.812 144.422L259.415 144.783L260.162 142.144L235.559 141.784L234.812 144.422Z" fill="#B9C3EF"/>
<path d="M192.883 209.903L246.04 210.662L269.459 132.968L216.301 132.209L192.883 209.903Z" fill="#E9EDFF"/>
<path d="M243.916 156.932L257.962 157.137L264.141 136.611L250.109 136.417L243.916 156.932Z" fill="#B9C3EF"/>
<path d="M229.328 203.983L243.374 204.188L256.441 160.869L242.395 160.664L229.328 203.983Z" fill="#B9C3EF"/>
<path d="M220.316 138.631L244.919 138.991L245.666 136.353L221.063 135.993L220.316 138.631Z" fill="#B9C3EF"/>
<path d="M218.668 143.985L243.271 144.345L244.017 141.694L219.415 141.346L218.668 143.985Z" fill="#B9C3EF"/>
<path d="M217.021 149.338L241.624 149.686L242.371 147.048L217.768 146.7L217.021 149.338Z" fill="#B9C3EF"/>
<path d="M215.373 154.692L239.989 155.04L240.735 152.401L216.133 152.054L215.373 154.692Z" fill="#B9C3EF"/>
<path d="M213.725 160.046L238.34 160.393L239.087 157.755L214.484 157.408L213.725 160.046Z" fill="#B9C3EF"/>
<path d="M212.09 165.387L236.692 165.747L237.439 163.109L212.837 162.749L212.09 165.387Z" fill="#B9C3EF"/>
<path d="M210.34 170.818L234.955 171.165L235.702 168.527L211.099 168.179L210.34 170.818Z" fill="#B9C3EF"/>
<path d="M208.705 176.171L233.308 176.519L234.054 173.881L209.452 173.533L208.705 176.171Z" fill="#B9C3EF"/>
<path d="M207.057 181.512L231.659 181.873L232.406 179.234L207.803 178.874L207.057 181.512Z" fill="#B9C3EF"/>
<path d="M205.408 186.866L230.011 187.226L230.77 184.588L206.155 184.228L205.408 186.866Z" fill="#B9C3EF"/>
<path d="M203.76 192.22L228.362 192.567L229.122 189.929L204.506 189.582L203.76 192.22Z" fill="#B9C3EF"/>
<path d="M202.125 197.574L226.728 197.921L227.474 195.283L202.872 194.935L202.125 197.574Z" fill="#B9C3EF"/>
<path d="M200.4 203.133L225.016 203.493L225.763 200.842L201.16 200.495L200.4 203.133Z" fill="#B9C3EF"/>
<path d="M239.925 291.29L253.726 238.692H209.207L239.925 291.29Z" fill="#FF9100"/>
<path d="M225.956 238.692H247.109L236.526 272.397H228.892L215.67 249.747L225.956 238.692Z" fill="#E87E00"/>
<path d="M169.143 250.622L183.175 201.524H236.333L214.035 279.553H179.081L169.143 250.622Z" fill="white"/>
<path d="M209.244 226.633H223.29L229.186 206.029H215.141L209.244 226.633Z" fill="#DCE1FF"/>
<path d="M185.389 208.68H209.991L210.699 206.029H186.097L185.389 208.68Z" fill="#DCE1FF"/>
<path d="M183.818 214.047H208.421L209.142 211.396H184.526L183.818 214.047Z" fill="#DCE1FF"/>
<path d="M182.248 219.426H206.864L207.572 216.775H182.956L182.248 219.426Z" fill="#DCE1FF"/>
<path d="M180.678 224.805H205.293L206.001 222.154H181.399L180.678 224.805Z" fill="#DCE1FF"/>
<path d="M179.107 230.172H203.723L204.431 227.521H179.828L179.107 230.172Z" fill="#DCE1FF"/>
<path d="M177.549 235.552H202.151L202.859 232.9H178.257L177.549 235.552Z" fill="#DCE1FF"/>
<path d="M199.679 237.032L201.688 233.158H218.978L220.355 237.032L239.924 291.29H175.077L155.508 237.032H199.679Z" fill="#FFB500"/>
<path d="M124.533 316.179L135.128 321.006H121.314L122.846 317.119L124.533 316.179Z" fill="#080638"/>
<path d="M135.81 316.875L136.08 317.042L146.174 321.006H131.639L132.913 318.702" fill="#080638"/>
</g>
<defs>
<linearGradient id="paint0_linear_5755_6184" x1="275.728" y1="143.496" x2="320.361" y2="254.854" gradientUnits="userSpaceOnUse">
<stop stop-color="white" stop-opacity="0.2"/>
<stop offset="1" stop-color="#EBEAEA" stop-opacity="0"/>
</linearGradient>
<clipPath id="clip0_5755_6184">
<rect width="535" height="333" fill="white"/>
</clipPath>
</defs>
</svg>
