<svg width="100" height="100" viewBox="0 0 100 100" fill="none" xmlns="http://www.w3.org/2000/svg">
<g filter="url(#filter0_d_5439_5773)">
<rect x="10" y="2" width="80" height="80" rx="8" fill="#009FDE"/>
</g>
<path d="M57.4995 29.4999C57.4995 25.3577 54.1417 22 49.9996 22C45.8575 22 42.4998 25.3577 42.4998 29.4999C42.4998 33.642 45.8575 36.9997 49.9996 36.9997C54.1417 36.9997 57.4995 33.642 57.4995 29.4999ZM48.2489 40.8356C43.6138 37.9981 36.1061 37.2185 32.3281 37.0036C31.0586 36.9317 30 37.8989 30 39.12V56.5259C30 57.6454 30.9055 58.579 32.0695 58.6391C35.4804 58.818 42.381 59.4735 47.1504 61.8758C47.8825 62.2445 48.7504 61.7422 48.7504 60.9485V41.7309C48.7496 41.366 48.5692 41.0317 48.2489 40.8356ZM67.6711 37.0036C63.8939 37.2177 56.3854 37.9981 51.7511 40.8356C51.4308 41.0317 51.2504 41.3793 51.2504 41.7441V60.9461C51.2504 61.7422 52.1207 62.2453 52.855 61.8758C57.6237 59.4758 64.5204 58.8204 67.9305 58.6415C69.0945 58.5805 70 57.647 70 56.5275V39.12C69.9992 37.8989 68.9406 36.9317 67.6711 37.0036Z" fill="white"/>
<defs>
<filter id="filter0_d_5439_5773" x="0" y="0" width="100" height="100" filterUnits="userSpaceOnUse" color-interpolation-filters="sRGB">
<feFlood flood-opacity="0" result="BackgroundImageFix"/>
<feColorMatrix in="SourceAlpha" type="matrix" values="0 0 0 0 0 0 0 0 0 0 0 0 0 0 0 0 0 0 127 0" result="hardAlpha"/>
<feMorphology radius="8" operator="erode" in="SourceAlpha" result="effect1_dropShadow_5439_5773"/>
<feOffset dy="8"/>
<feGaussianBlur stdDeviation="9"/>
<feColorMatrix type="matrix" values="0 0 0 0 0.388235 0 0 0 0 0.4 0 0 0 0 0.945098 0 0 0 0.9 0"/>
<feBlend mode="normal" in2="BackgroundImageFix" result="effect1_dropShadow_5439_5773"/>
<feBlend mode="normal" in="SourceGraphic" in2="effect1_dropShadow_5439_5773" result="shape"/>
</filter>
</defs>
</svg>
